<svg width="1301" height="1051" fill="none" xmlns="http://www.w3.org/2000/svg"><g clip-path="url(#clip0)"><path d="M667.38 825.44c-204.43 5.61-383.97 26.1-502.06 48.6-119.06 22.9-176.69 47.81-160.13 71.1 16.72 23.52 102.96 42.85 218.72 60.66 116.59 17.42 262.68 33.3 418.46 40.98 303.47 17.02 589.1-19.42 660.74-94.89 72.27-75.04-217.8-140.14-635.73-126.45z" fill="#EAF4FE"/><path d="M379.26 911.3c-13.1 0-23.76-10.66-23.76-23.76v-441c0-13.11 10.66-23.76 23.76-23.76h644.42c13.1 0 23.75 10.66 23.75 23.76v440.99c0 13.1-10.64 23.76-23.75 23.76H379.26v.01z" fill="#EAF4FE"/><path d="M1045.2 887.54c0 11.89-9.63 21.54-21.52 21.54H379.26c-11.9 0-21.54-9.65-21.54-21.54v-441c0-11.9 9.63-21.54 21.54-21.54h644.42c11.89 0 21.52 9.64 21.52 21.54v441z" fill="#0450CF"/><path d="M391.43 455.9h620.07v395.78H391.43V455.9z" fill="#003E99"/><path d="M700.71 439.98c0 1.59-1.3 2.9-2.9 2.9-1.59 0-2.87-1.3-2.87-2.9 0-1.6 1.28-2.88 2.87-2.88s2.9 1.29 2.9 2.88z" fill="#C5E1F9"/><path d="M676.3 455.9l11.98-30.9h-98.66l-11.98 30.9h98.66zM424.23 851.68l-22.25 57.4h98.67l22.24-57.4h-98.66zM739.72 455.9l11.99-30.9h-31.72l-11.97 30.9h31.7zM554.61 851.68l-22.25 57.4h31.71l22.24-57.4h-31.7z" fill="#0561FC"/><path d="M239.62 884.69h923.68v27.02H239.62v-27.02z" fill="#C5E1F9"/><path d="M240.97 911.71c10.92 11.55 31 16.1 44.85 16.1h831.27c13.86 0 33.96-4.54 44.87-16.1H240.97zM638.73 884.69v2.9c0 5.34 4.32 9.66 9.64 9.66h106.19c5.33 0 9.65-4.32 9.65-9.66v-2.9H638.73z" fill="#9AC7F7"/><path d="M624.43 763.3c0 44.03-35.69 79.74-79.72 79.74-44.04 0-79.74-35.71-79.74-79.74 0-44.01 35.7-79.73 79.74-79.73 44.03 0 79.72 35.72 79.72 79.73zm325.52 86.92c5.86-12.1 9.24-25.64 9.24-39.97 0-50.87-41.24-92.11-92.12-92.11s-92.14 41.24-92.14 92.11c0 14.33 3.37 27.87 9.27 39.97h165.75z" fill="#00AEDD"/><path d="M680.56 240.17l40.56 187.9L761.69 776H599.41l40.57-347.93 40.58-187.9z" fill="#29BFFF"/><path d="M680.56 240.17l28.26 187.9L737.1 776H624l28.28-347.93 28.28-187.9z" fill="#00AEDD"/><path d="M680.56 240.17l8.37 187.9L697.27 776H663.8l8.37-347.93 8.39-187.9z" fill="#29BFFF"/><path d="M879.34 777.34c.38-3.11.59-6.27.59-9.48 0-44.01-35.64-79.71-79.67-79.71-12.48 0-24.21 2.93-34.71 8.03-12.11-41.53-50.42-71.91-95.87-71.91-49.69 0-90.76 36.28-98.53 83.74a106.788 106.788 0 00-63.87 37.12 53.443 53.443 0 00-16.64-2.66c-29.75 0-53.89 24.12-53.89 53.88 0 29.38 23.56 53.23 52.8 53.82 0 0 0 .04.02.05h385.54c.03-.09.06-.2.09-.29 1.02.09 1.97.29 3 .29 20.17 0 36.49-16.33 36.49-36.5.01-19.75-15.73-35.77-35.35-36.38z" fill="#29BFFF"/><path d="M813.39 804.52c-12.76 0-24.66 3.68-34.72 9.99-.52-54.73-45.02-98.97-99.88-98.97-43.07 0-79.62 27.24-93.69 65.4-10.65-3.87-22.09-6.09-34.07-6.09-42.56 0-78.82 26.63-93.22 64.11 8.81 6.8 19.79 10.98 31.75 11.21 0 0 0 .04.02.05h385.54c.03-.09.06-.2.09-.29.25.02.48.05.67.06-8.51-26.37-33.24-45.47-62.49-45.47z" fill="#00AEDD"/><path d="M640.86 819.99c0 17.22-13.94 31.17-31.18 31.17-17.2 0-31.16-13.95-31.16-31.17 0-17.2 13.96-31.16 31.16-31.16 17.24.01 31.18 13.96 31.18 31.16z" fill="#29BFFF"/><path d="M724.94 851.16c2.46-6.69 3.9-13.87 3.9-21.43 0-34.15-27.69-61.85-61.85-61.85-34.15 0-61.84 27.7-61.84 61.85 0 7.56 1.41 14.74 3.9 21.43h115.89z" fill="#29BFFF"/><path d="M762.16 814.67c0 20.17-16.35 36.5-36.5 36.5-20.16 0-36.51-16.33-36.51-36.5 0-20.15 16.35-36.48 36.51-36.48 20.15 0 36.5 16.33 36.5 36.48z" fill="#29BFFF"/><path d="M684.72 296.72c-21.46 0-38.86 28.88-38.86 64.51 0 4.5.29 8.92.83 13.16h76.06c.54-4.24.81-8.66.81-13.16 0-35.64-17.39-64.51-38.84-64.51z" fill="#0450CF"/><path d="M674.61 296.72c-15.88 0-28.74 28.88-28.74 64.51 0 4.5.22 8.92.61 13.16h56.26c.41-4.24.61-8.66.61-13.18-.01-35.6-12.89-64.49-28.74-64.49z" fill="#0561FC"/><path d="M648.04 142.16c0 68.72-35.2 128.53-87.17 159.53-1.57 1.45-3.1 2.86-4.58 4.23-9.61 8.77-6.48 50.16-6.48 50.16h98.73V116.56c0 3.7-.33 8.38-.89 13.73.23 3.93.39 7.88.39 11.87z" fill="#0561FC"/><path d="M648.55 222.35c-15.75 40.1-45.49 73.35-83.31 93.9-1.73 1.46-3.41 2.87-5.03 4.23-6.42 5.36-7.64 22.79-7.64 35.6h95.98V222.35z" fill="#EAF4FE"/><path d="M561.23 351.24c-1.51 1.12-2.8 2.79-3.85 4.83h91.18V276.8c-19.17 29.47-47.45 53.84-81.6 70.19-1.96 1.47-3.86 2.89-5.73 4.25z" fill="#C5E1F9"/><path d="M721.39 142.16c0 68.72 35.21 128.53 87.18 159.53 1.56 1.45 3.09 2.86 4.59 4.23 9.58 8.77 6.46 50.16 6.46 50.16h-98.73V116.55c0 3.72.32 8.38.9 13.76-.23 3.91-.4 7.86-.4 11.85z" fill="#0561FC"/><path d="M720.89 222.35c15.75 40.1 45.49 73.35 83.31 93.9 1.71 1.46 3.4 2.87 5.03 4.23 6.42 5.34 7.64 22.79 7.64 35.6h-95.98V222.35z" fill="#EAF4FE"/><path d="M808.2 351.24c1.53 1.12 2.79 2.79 3.84 4.83h-91.15V276.8c19.17 29.47 47.47 53.84 81.59 70.19 1.95 1.47 3.85 2.87 5.72 4.25z" fill="#C5E1F9"/><path d="M723.4 356.07V108.46c0-22.67-16.84-96.22-38.68-108.33-21.84 12.12-38.69 85.66-38.69 108.33v247.61h77.37z" fill="#C5E1F9"/><path d="M684.72.13c-.23.12-.44.29-.65.44v355.51h39.33V108.46c0-22.67-16.84-96.21-38.68-108.33z" fill="#EAF4FE"/><path d="M657.05 50.7h55.3C705.4 27.84 695.69 6.22 684.71.13c-10.98 6.1-20.69 27.7-27.66 50.57z" fill="#0561FC"/><path d="M684.06 50.7h28.29C705.4 27.84 695.69 6.22 684.71.13c-.23.12-.44.29-.65.44V50.7z" fill="#0450CF"/><path d="M708.53 91.73c-1.6 3.61-6.87 2.25-13.03-.06a30.261 30.261 0 00-22 0c-6.17 2.29-11.44 3.68-13.03.06-1.62-3.55 2.21-12.09 10.25-15.19a37.858 37.858 0 0127.55 0c8.04 3.08 11.87 11.64 10.26 15.19zM605.81 296.72c-9.38 0-16.99 28.88-16.99 64.49 0 4.52.12 8.94.34 13.18l33.29.02c.23-4.26.36-8.68.36-13.18 0-35.62-7.61-64.51-17-64.51z" fill="#0561FC"/><path d="M605.81 296.72c-2.44 0-4.76 2-6.88 5.54 7.72 4.2 13.65 29.33 13.65 59.78 0 4.24-.1 8.36-.33 12.35l10.2.02c.23-4.26.36-8.68.36-13.18 0-35.62-7.61-64.51-17-64.51z" fill="#0450CF"/><path d="M763.62 296.72c-9.38 0-16.99 28.88-16.99 64.49 0 4.52.12 8.94.33 13.18h33.29c.23-4.24.35-8.66.35-13.18.01-35.6-7.59-64.49-16.98-64.49z" fill="#0561FC"/><path d="M763.62 296.72c-2.45 0-4.78 2-6.88 5.54 7.73 4.2 13.65 29.33 13.65 59.78 0 4.24-.11 8.36-.33 12.35h10.2c.23-4.24.35-8.66.35-13.18 0-35.6-7.6-64.49-16.99-64.49z" fill="#0450CF"/><path d="M164.92 890.26l8.19 44.48 28.22 7.28 15.02.46-29.13-14.57-6.6-37.89-15.7.24z" fill="#E9D6B8"/><path d="M172.66 942.02l5.92.46 3.18-4.09 25.03 7.39 15.92 1.25s-1.19-2.51-2.17-3.31c-2.89-2.36-14.45-6.71-14.45-6.71s.23 3.64-1.59 4.11c-1.81.45-19.12-4.32-23.2-5.93-7.06-2.74-8.67-4.94-9.11-4.55-1.13 1.04.47 11.38.47 11.38z" fill="#161711"/><path d="M155.57 624.92l35.4 146.77-7.45 128.06-21.75-1.38c-10.06-127.47.85-106.39-4.04-125.78-3.12-12.33-55.01-121.67-44.36-147.85 10.62-26.17 42.2.18 42.2.18z" fill="#163F59"/><path d="M252 493.71c3.13-.94 5.69-.15 8.63 1.15 2.75 1.24 4.87.14 4.87.14s.99.15-5.14-2.51c-1.72-.75-3.65-1.46-5.49-1.54-1.73-.06-4.83.18-6.1.84-2.8 1.52-2.26 3.57 3.23 1.92z" fill="#E2C59C"/><path d="M160.11 530.42c17.84 1.31 67.4-26.86 67.4-26.86s15.5-15.64-56.01 9.45c-21.47 7.53-15.79 17.08-11.39 17.41z" fill="#E9D6B8"/><path d="M255.49 494.05l-.74-1.43-5.39-1.35s-9.87 1.7-13.35 3.66c-3.49 1.99-18.69 4.18-20.43 4.94-1.73.77-2.34 9.61-2.34 9.61s14.74-5.96 20.78-7.82c6.04-1.87 15.58-1.54 17.98-2.18 4.08-1.1 6.22-1.42 6.22-1.42s-.89-2.1-7.41-.76c-1.72.36-1.2-1.75-1.2-1.75l5.88-1.5z" fill="#E9D6B8"/><path d="M248.51 495.77s-.07-3.41 1.28-3.66c3.21-.59 8.19-1.46 9.79-1.4 1.79.06 10.14 1.77 10.14 1.77s-2.75 1.29-6.15.83c-4.66-.61-15.06 2.46-15.06 2.46z" fill="#E9D6B8"/><path d="M193.34 501.61l-29.68 7.36s-66.96-4.14-72.87 1.82c-6.99 7.08-13.41 21.35-13.41 21.35l81.23 3.68 34.63-3.46.1-30.75z" fill="#B0BFDE"/><path d="M273.63 384.91C241.91 308.3 170.05 265.29 86.46 299.9 2.87 334.51-17.55 415.72 14.17 492.34c24.74 59.76 75.24 63.17 131.33 98.01 11.11 6.9 20 48.31 20 48.31l104.52-43.26s-22.99-35.59-20-48.31c15.02-64.32 48.36-102.41 23.61-162.18z" fill="#FDA621"/><path d="M163.7 639.4l5.97 14.4c9.88 23.88 37.25 35.24 61.15 25.35l21.63-8.96c23.89-9.89 35.22-37.27 25.33-61.15l-5.96-14.4L163.7 639.4z" fill="#3D7AA8"/><path d="M192.8 435.26l5.63 81.39 37.55 90.69M84.78 457.83l7.58-28.47 25.53 14.76 7.58-28.47L151 430.41l7.64-28.49 25.53 14.77 7.65-28.51 25.58 14.74-132.62 54.91zm26.93 11l53.54 61.54 37.57 90.72-91.11-152.26z" stroke="#F4DA80" stroke-width="2.261" stroke-miterlimit="10"/><path d="M196.23 634.618l67.565-27.982 4.649 11.225-67.565 27.983-4.649-11.226zM204.593 654.924l48.644-20.145 4.649 11.225-48.644 20.146-4.649-11.226z" fill="#34688F"/><path d="M57.08 901.68l-11.94 44.09 1.04 3.22 28.21 7.3 15.02.45-29.12-14.56 14.09-43.24-17.3 2.74z" fill="#E9D6B8"/><path d="M45.72 956.29l5.91.44 3.19-4.1 22.64 6.38 19.23.91s-.04-1.5-.8-2.16c-2.84-2.5-16.95-6.7-16.95-6.7s.57 4.31-1.25 4.77c-1.83.46-19.23-4.77-23.32-6.38-7.05-2.74-8.67-4.93-9.1-4.55-1.14 1.04.45 11.39.45 11.39z" fill="#161711"/><path d="M95.63 647l-7.47 119.24s-14.42 29.16-16.68 40.73c-5.08 26.08-20.55 104.25-20.55 104.25l23.13 4.6s42.29-134.71 46.34-146.69c4.04-12 39.79-112.26 29.88-139.07C140.39 603.25 95.63 647 95.63 647z" fill="#194866"/><path d="M98.47 493.3c2.54 16.78-9.31 32.47-26.43 35.06-17.14 2.58-33.08-8.92-35.61-25.7-2.54-16.77 9.3-32.47 26.44-35.05 17.13-2.58 33.07 8.92 35.6 25.69z" fill="#282723"/><path d="M100.3 539.76c2.65 17.51-9.72 33.9-27.62 36.6-17.88 2.7-34.53-9.3-37.17-26.82-2.65-17.54 9.72-33.92 27.61-36.62 17.89-2.7 34.54 9.31 37.18 26.84zm18.96-72.77c1.94 12.89-6.92 24.91-19.81 26.84l-7.5-10.2c-12.89 1.95-24.91-6.91-26.86-19.8l-1.31-8.75c-1.94-12.88 6.93-24.91 19.81-26.85l5.83-.88c12.88-1.95 24.9 6.93 26.84 19.8l3 19.84z" fill="#282723"/><path d="M104.75 434.1c.3 2.14.46 4.37.43 6.65-.09 15.34-7.48 28.09-17.22 30.98.72 6.84.27 13.14-.58 18.57-.96 6.18-6.94 13.48-6.94 13.48-.1 10.71 37.82 20.7 36.71 19.14-1.1-1.56-11.73-12.55-16.3-23.43-3.2-7.57-1.6-14.46.73-19.39 4.57-7.37 12.66-8.5 12.66-8.5.77-.12 1.43-.56 1.84-1.16.24-1.62.25-3.29-.01-4.99l-2.9-19.25c-.79-5.32-4.05-9.67-8.42-12.1z" fill="#E9D6B8"/><path d="M143.86 643.32l16.55-12s-16.66-28.19-22.5-46.29c-5.83-18.11-6.42-24.24-6.27-30.12.15-5.89 1.83-13.05-2.85-18.9-4.67-5.85-12.06-15.61-14.51-16.1-3.92-.8-8.22-1.87-11.72-4.45-1.91-1.43 41.3 127.86 41.3 127.86z" fill="#C5E1F9"/><path d="M150.85 650.15s-14.82-43.32-21.82-65.28c-6.99-21.95-23.34-63.21-25.05-68.47-1.72-5.26-5.96-11.98-5.96-11.98s-9.49-5.02-16.95-2.52c-7.44 2.51-15.32 11.65-11.8 37.69 2.3 16.97 29.3 60 29.92 64.05.61 4.05-10.43 40.69-8.94 50.59 1.5 9.9 1.7 11.25 1.7 11.25s37.14-25.39 58.9-15.33z" fill="#387BFF"/><path d="M81.22 495.2l7.13 3.1 10.3 4.97-.28 10.19-19.81-13.01 2.66-5.25z" fill="#0063CB"/><path d="M213.779 574.31c14.4 1.97 21.431-3.74 27.391-5 5.97-1.25 12.109-3.58 12.069-3.53-3.94 5.15-8.62 4.69-11.19 6.17-2.56 1.5-1.829.67 3.241 1.72 2.9.6 8.629-3.37 12.649-5.45 3.48-1.79 5.511-1.7 5.511-1.7s-4.35 4.21-9.6 7.35c-6.33 3.8-13.911 6.69-15.671 7.04-3.22.69-12.87-.33-19.62-2.12-7.61-1.98-15.15-5.91-4.78-4.48z" fill="#E9D6B8"/><path d="M126.95 562.01s1.12-5.62 31.24-.63c30.12 5 73.24 19.11 73.24 19.11l-70.5-5.61c.01 0-26.84-3.33-33.98-12.87z" fill="#E9D6B8"/><path d="M150.84 553.7s-28.1-4.49-29.59 10.85c-.84 8.72 4.83 13.06 13.34 14.28 15.83 2.26 33.95 4.07 33.95 4.07l13.16-21.47-30.86-7.73z" fill="#0063CB"/><path d="M135.88 548.98l-49.11-36.93s-7.6-2.44-11.65 1.92c-5.85 6.29-6.4 11.06-3.65 15.32 5.43 8.41 1.55 5.26 29.43 27.09 25.46 19.97 35.75 28.52 45.73 16.94 9.32-10.81-10.75-24.34-10.75-24.34z" fill="#0063CB"/><path d="M242.88 579.01s11.25-1.71 13.29-2.89c1.43-.81 7.47-5.78 7.47-5.78s-4.19.29-6.73 2.15c-2.54 1.87-14.03 6.52-14.03 6.52z" fill="#E2C59C"/><path d="M1129.27 774.49c2.5-1.54 11.04 7.97 14.66 16.39 7.11 16.5 8.94 25.62 11.7 43.82 4.37 28.86 11.77 74.69 14.22 94.2 2.21 17.58 9.28 38.38-1.29 35.44.16-24.13-10.94-60.52-17.37-79.64-21.98-65.26-29.61-105.51-21.92-110.21zm50.23 15.49c-.93-4.63-1.89-9.18-2.86-13.67-3.27-6.54-6.13-9.97-8.31-9.46-8.25 1.94-15.71 39.23 10.2 127.82 1.3 4.45 18.69 81.67 18.57 79.78-3-49.58-3.73-115.82-17.6-184.47z" fill="#E9D6B8"/><path d="M1197.94 980.16c4.47 9.05 10.05 15.42 12.43 14.24 2.39-1.18.7-9.47-3.77-18.52-4.47-9.05-10.04-15.43-12.43-14.24-2.39 1.17-.7 9.47 3.77 18.52z" fill="#387BFF"/><path d="M1196.58 974.79c2.29 7.09 7.16 12.21 9.55 11.03 2.39-1.18 1.51-7.25-2.08-13.78-4.55-8.25-6.28-10.61-6.67-16.53-.36-5.55-9.43-7.35-.8 19.28zm-46.35-13.75s2.39-1.03 9.01-2.28c3.86-.73 6.8-.71 8.19-2.16 2.29-2.4 1.02-8.2 2.14-7.94 5.48 1.26 7.37 14.06 4.17 15.65-3.19 1.6-21.24-.53-22.72-.65-1.47-.11-1.24-2.96-.79-2.62z" fill="#E9D6B8"/><path d="M1153.99 959.88c-1.02 4.31 12.2 2.57 15.62 1.45 3.27-1.06 5.36-1.4 5.36-1.4.14 0 .27-.03.41-.03.01.1.05.21.05.31 0 2.36 1.04 5.51-2.74 5.51h-23.71c-19.38 0 5.04-5.95 5.01-5.84z" fill="#387BFF"/><path d="M1118.2 449.46l5.09-35.15c6.45-6.79 14.71-10.41 23.11-9.2 16.22 2.35 26.82 21.78 23.68 43.41-3.13 21.63-18.81 37.25-35.02 34.91-11.35-1.65-19.93-11.66-23-24.92 3.25-2 5.58-5.19 6.14-9.05z" fill="#163F59"/><path d="M1182.58 469.75c.61 5.62-5.3 10.88-13.22 11.74l-18.06 2c-7.92.87-14.84-2.97-15.45-8.6l-5.64-51.23c-.63-5.62 5.3-10.87 13.22-11.75l18.06-1.98c7.92-.88 14.84 2.98 15.45 8.59l5.64 51.23z" fill="#163F59"/><path d="M1135.49 491.74c-10.71 4.63-16.07 3.19-7.89 6.64 3.93 4.82 54.22-1.89 56.96-8.13.45-1.05-19.96-4.05-20.07-4.83-1.25-9.05-1.74-16.7.79-26.82-.1-.79-.71-1.42-1.34-1.41-3.81.11-7.65.14-11.48.25-.63.03-8.12 1.68-6.46 5.28.81 9.87.82 24.12-10.51 29.02z" fill="#E9D6B8"/><path d="M1132.08 462.07c-.17-.35-.34-.72-.5-1.08-.04-.11-.1-.21-.15-.34-.2-.45-.39-.92-.58-1.4-.05-.13-.1-.25-.14-.38-.13-.36-.27-.72-.39-1.09-.07-.2-.14-.41-.21-.61-.1-.31-.2-.63-.3-.95-.07-.22-.13-.44-.2-.66-.12-.42-.22-.84-.34-1.27-.08-.31-.15-.63-.23-.97-.07-.29-.15-.59-.21-.88-.06-.3-.12-.6-.18-.91-.05-.26-.11-.51-.15-.79-.04-.21-.08-.42-.13-.63v-.01c-.62-3.65.62-20.82 3.51-29.01.35-.99 1.41-1.77 2.88-1.61 8.84.99 35.77-.26 28.81 24.27v.03c-.01.06-.41 2.17-.62 3.14-.02.09-.04.17-.06.25-.22.98-.45 1.94-.71 2.87-.02.07-.03.13-.05.18-.26.95-.54 1.88-.85 2.78-.01.03-.01.07-.03.1-3.86 11.57-10.6 19.2-17.75 18.7-4.17-.29-7.83-3.3-10.58-8.14h-.01a1.09 1.09 0 00-.06-.11c-.21-.37-.42-.75-.61-1.13-.05-.12-.11-.24-.16-.35zm147.24 20.54s1.87.9 2.66-.52c1.29-2.35 1.76-7.71 1.83-9.63.09-2.14-1.15-12.26-1.15-12.26s-2.07 3.18-1.58 7.25c.71 5.96-1.76 15.16-1.76 15.16z" fill="#E9D6B8"/><path d="M1279.51 481.22c1.7-3.46.82-7.82-1.46-12.72-2.17-4.64-.59-7.55-.59-7.55s1.72 2.84 4.32 10.4c.72 2.12 1.4 4.47 1.3 6.69-.27 6.71-7.96 12.06-3.57 3.18zm-72.05 42.42c9.78 7.22 18.44 32.63 25.16 48.73 3.79 9.07 2.39 15.92 2.39 15.92s-3.32 21.26-28.65-36.69c-6.34-14.51-2.57-30.67 1.1-27.96z" fill="#E9D6B8"/><path d="M1279.44 477l1.64 1.04 1.1 6.56s-2.96 11.6-5.65 15.59c-2.69 3.97-13.54 35.31-15.34 36.7-3.18 2.47-9.48-6.03-9.48-6.03s13.81-21.91 16.6-28.94c2.8-7.03 3.33-18.43 4.32-21.23 1.71-4.77 2.29-7.29 2.29-7.29s2.43 1.27.19 8.91c-.58 2.02 1.98 1.6 1.98 1.6l2.35-6.91z" fill="#E9D6B8"/><path d="M1189.13 560.29l-67.1-.57-8.21-76.75 79.63 7.57-4.32 69.75z" fill="#C5E1F9"/><path d="M1118.19 788.94c33 5.17 38.96.78 76.89-4.63 3.59.06 18.95-36.85 8.14-134.22-2.23-20.06-17.4-36.18-13.92-90.64-22.56-.44-45.11-.87-67.67-1.31 8.97 49.52-44.65 57.21-3.44 230.8z" fill="#C5E1F9"/><path d="M1115.93 580.37l9.53-67.29-2.32-27.14c-1.58-1.58-3.58-2.63-5.81-2.91l-1.52-.19c-5.88-.71-11.16 4.23-11.8 11.05l-7.49 92.13 19.41-5.65zm107.33 8.25l-30.44-58.73-9.28-34.32c1.2-1.7 2.9-3.09 5.01-3.87l1.43-.54c5.53-2.07 11.69.73 13.77 6.25l32.45 67.08-12.94 24.13z" fill="#E41342"/><path d="M1279.92 485.31s1.85-5.84.92-8.77c-.66-2.04-5.31-11.12-5.31-11.12s-.84 3.7 1.02 7.35c2.71 5.35 3.37 12.54 3.37 12.54zm-2.82-1.4s-1.7.39-2.27-.14c-.02.57.12 1.16.17 1.6.11 1.01-.45 7.88-.45 7.88s1.36-4.88 2.07-6.21c.44-.84.92-2.89 1.33-4.61.05-.21-.03-.59-.01-.99l-.84 2.47z" fill="#E9D6B8"/><path d="M1275.12 482.31c1.5-5.14.89-7.39.34-8.32-.34 1.22-.94 3.16-1.89 5.86-.35.96-.64 2.98-.99 5.5-.07.48 1.74.93 2.45 5.07.13.74 1.5-3.74 1.73-6.48-.69.02-2.09-.08-1.64-1.63z" fill="#E9D6B8"/><path d="M1148.69 455.11c3.24-1.99 5.57-5.19 6.13-9.06l5.09-35.15c.31-.32.64-.6.95-.91l.62-.07c7.92-.88 14.84 2.98 15.45 8.59l5.65 51.23c.48 4.34-2.96 8.43-8.19 10.49-.9-.02-1.8-.07-2.71-.21-11.33-1.64-19.92-11.65-22.99-24.91z" fill="#163F59"/><path d="M1117.33 483.04l20.58.41s11.21 64.66 11.21 83.63c0 18.96-12.93 70.69-12.07 94.83.86 24.14.3 115.69.3 115.69h-36.65s-5.89-121.72 7.9-168.28c11.01-37.16 8.73-126.28 8.73-126.28z" fill="#E41342"/><path d="M1137.91 483.45l-10.34-.86.03 15.8 6 7.48-2.59 7.76 8.62 34.48v68.1s11.21-60.34 7.76-72.41c-3.44-12.08-9.48-60.35-9.48-60.35z" fill="#C61241"/><path d="M1172.4 487.76l21.06 2.78s-2.95 61.88-3.82 79.98c-.86 18.1 9.48 50.87 15.52 72.42 10.59 37.8 11.04 130.21 11.04 130.21s-22.21 4.44-48.86 4.44c0 0-6.14-57.93-5.28-145.86.85-87.94 10.34-143.97 10.34-143.97z" fill="#E41342"/><path d="M1167.22 485.17l-8.62 58.62 4.31 93.11 6.9-99.14 8.62-21.55-2.59-7.76 4.32-4.31-3.46-18.97h-9.48z" fill="#C61241"/><path d="M1170.35 510.29l-70.2-7.02 23.97 91.39 64.66 6.89-18.43-91.26z" fill="#163F59"/><path d="M1131.26 550c7.91-12.24 5.73-21.07 7.13-27.03 1.4-5.95 1.91-12.54 1.94-12.48 3.01 5.78.59 9.82.85 12.8.27 2.96-.18 1.95 2.94-2.21 1.78-2.38.6-9.28.43-13.82-.15-3.94.79-5.74.79-5.74s1.99 5.73 2.61 11.85c.75 7.38.13 15.49-.29 17.26-.75 3.21-5.78 11.55-10.27 16.94-5.05 6.06-11.85 11.25-6.13 2.43z" fill="#E9D6B8"/><path d="M1104.29 580.86c17.24-20.69 40.11-44.28 40.11-44.28l-31.39 53.77c.01 0-17.34.86-8.72-9.49z" fill="#E9D6B8"/><path d="M1100.89 575.24s-11.12 14.95-1.1 20.48c5.69 3.14 10.26 1.17 13.53-3.41 6.08-8.5 12.5-18.48 12.5-18.48L1115 559.66l-14.11 15.58z" fill="#E41342"/><path d="M1147.93 525.55s3.24-10.95 3.05-13.32c-.14-1.64-2.08-9.24-2.08-9.24s-1.52 3.93-.91 7.02c.6 3.11-.06 15.54-.06 15.54z" fill="#E2C59C"/><path d="M1253.43 524.83s13.8 6.03 12.07 12.07c-1.73 6.03-18.11 53.45-28.45 57.76-10.35 4.31-15.52-9.48-16.38-12.93-.86-3.45 32.76-56.9 32.76-56.9z" fill="#E41342"/></g><defs><clipPath id="clip0"><path fill="#fff" d="M0 0h1301v1051H0z"/></clipPath></defs></svg>