<svg xmlns="http://www.w3.org/2000/svg" width="1183.044" height="858.931" viewBox="0 0 1183.044 858.931">
  <g id="Groupe_4432" data-name="Groupe 4432" transform="translate(-727.711 -192.648)">
    <g id="Scene_Wireframe" data-name="Scene/Wireframe" transform="translate(727.711 192.648)">
      <g id="Background_Shape_2" data-name="Background Shape 2" transform="translate(0 364.058)" opacity="0.6">
        <path id="Background_Shape" data-name="Background Shape" d="M859.492,189.756c12.534,84.813-291.438,140.133-553.073,101.527S-75.242,101.911,49.606,21.578,846.958,104.943,859.492,189.756Z" transform="translate(0 0)" fill="#dde3e9"/>
      </g>
      <g id="Mobile3" transform="translate(135.626 37.737)">
        <rect id="Container" width="174" height="329" rx="8" fill="#f2f2f2"/>
        <circle id="Touch" cx="16.5" cy="16.5" r="16.5" transform="translate(70 276)" fill="#fff"/>
        <g id="Camera" transform="translate(70.001 16.999)">
          <ellipse id="Lens" cx="2.5" cy="2" rx="2.5" ry="2" fill="#fff"/>
          <rect id="Sensor" width="23" height="4" rx="2" transform="translate(10)" fill="#fff"/>
        </g>
        <g id="Rows" transform="translate(16 29.999)">
          <g id="Row" transform="translate(0 0)">
            <rect id="Background" width="143" height="59" rx="4" fill="#fff"/>
            <g id="Text" transform="translate(41.893 18.338)">
              <rect id="Name" width="79.734" height="8.847" rx="3" fill="#dde3e9"/>
              <rect id="Name-2" data-name="Name" width="53.52" height="8.847" rx="3" transform="translate(0 14.745)" fill="#dde3e9"/>
            </g>
            <ellipse id="Avatar" cx="13.5" cy="13" rx="13.5" ry="13" transform="translate(9 17)" fill="#c5cfd6"/>
          </g>
          <g id="Row-2" data-name="Row" transform="translate(0 68)">
            <rect id="Background-2" data-name="Background" width="143" height="46" rx="4" fill="#fff"/>
            <g id="Text-2" data-name="Text" transform="translate(41.893 14.125)">
              <rect id="Name-3" data-name="Name" width="79.734" height="6.881" rx="3" fill="#dde3e9"/>
              <rect id="Name-4" data-name="Name" width="53.52" height="6.881" rx="3" transform="translate(0 11.469)" fill="#dde3e9"/>
            </g>
            <ellipse id="Avatar-2" data-name="Avatar" cx="13.5" cy="13" rx="13.5" ry="13" transform="translate(9 10)" fill="#c5cfd6"/>
          </g>
          <g id="Row-3" data-name="Row" transform="translate(0 122.001)">
            <rect id="Background-3" data-name="Background" width="143" height="46" rx="4" fill="#fff"/>
            <g id="Text-3" data-name="Text" transform="translate(41.893 14.736)">
              <rect id="Name-5" data-name="Name" width="79.734" height="6.881" rx="3" fill="#dde3e9"/>
              <rect id="Name-6" data-name="Name" width="53.52" height="6.881" rx="3" transform="translate(0 11.469)" fill="#dde3e9"/>
            </g>
            <circle id="Avatar-3" data-name="Avatar" cx="13.5" cy="13.5" r="13.5" transform="translate(9 10)" fill="#afb9c5"/>
          </g>
          <g id="Row-4" data-name="Row" transform="translate(0 177)">
            <rect id="Background-4" data-name="Background" width="143" height="46" rx="4" fill="#fff"/>
            <g id="Text-4" data-name="Text" transform="translate(41.893 14.35)">
              <rect id="Name-7" data-name="Name" width="79.734" height="6.881" rx="3" fill="#dde3e9"/>
              <rect id="Name-8" data-name="Name" width="53.52" height="6.881" rx="3" transform="translate(0 11.469)" fill="#dde3e9"/>
            </g>
            <ellipse id="Avatar-4" data-name="Avatar" cx="13.5" cy="13" rx="13.5" ry="13" transform="translate(9 10)" fill="#c5cfd6"/>
          </g>
        </g>
      </g>
      <g id="Mobile3-2" data-name="Mobile3" transform="translate(163.705 77.959)">
        <g id="Group" transform="translate(0 238.817)">
          <path id="Fill_16" data-name="Fill 16" d="M8.891,0C7.444,0,6,.029,4.556.1,3.454.162,1.771-.067.839.62c-.968.713-.9,2.173-.751,3.2.8,5.452,2.752,10.287,6.836,14.149,6.288,5.948,13.5,8.97,22.026,10.316,5.992.945,11.523-.367,15.933-4.628a66.483,66.483,0,0,1,6.894,19.281,46.194,46.194,0,0,1,.684,9.909c-.069,2.15-.187,4.295-.418,6.434-.1.93-.574,2.337-.21,3.216a1.467,1.467,0,0,0,2.514.252c.538-.732.439-2.17.55-3.037.183-1.44.353-2.88.474-4.326.2-2.341.343-4.688.332-7.038a52.467,52.467,0,0,0-2.8-15.591C49.82,23.147,44.822,14.6,37.05,7.9,32.27,3.776,26.8,2.107,20.595,1.21A82.5,82.5,0,0,0,8.891,0" transform="translate(4.369)" fill="#59b224"/>
          <path id="Fill_18" data-name="Fill 18" d="M35.576,0C19.958,0,9.439,12.587,4.466,25.669,2.591,30.6,2.152,36.016,1.429,41.193c-.232,1.662-.146,4.194-.821,5.674C.364,47.4-.2,47.6.071,48.328a1.187,1.187,0,0,0,.96.8c.982.181,2.371-.889,3.214-1.311,6.986-3.5,11.576-8.921,15.32-15.549A66.172,66.172,0,0,0,25.62,19.387a44.53,44.53,0,0,0,1.621-8.515,32.419,32.419,0,0,0,.216-3.41,6.876,6.876,0,0,0-.905-2.7c5.211-1.973,11.093-2.51,16.372-.466A20.981,20.981,0,0,1,54.133,14.435a19.334,19.334,0,0,1,1.377,3.736,12.858,12.858,0,0,0,.629,2.692c.975,1.843,3.026.611,2.829-1.1A22.189,22.189,0,0,0,52.182,6.84,24.411,24.411,0,0,0,35.576,0" transform="translate(0 38.229)" fill="#59b224"/>
        </g>
        <rect id="Container-2" data-name="Container" width="173" height="330" rx="8" transform="translate(52.691)" fill="#dde3e9"/>
        <ellipse id="Touch-2" data-name="Touch" cx="16" cy="16.5" rx="16" ry="16.5" transform="translate(122.691 277)" fill="#fff"/>
        <g id="Camera-2" data-name="Camera" transform="translate(122.691 17.999)">
          <circle id="Lens-2" data-name="Lens" cx="2" cy="2" r="2" fill="#fff"/>
          <rect id="Sensor-2" data-name="Sensor" width="23" height="4" rx="2" transform="translate(9)" fill="#fff"/>
        </g>
        <g id="Rows-2" data-name="Rows" transform="translate(67.692 30.999)">
          <g id="Row-5" data-name="Row" transform="translate(0 0)">
            <rect id="Container-3" data-name="Container" width="143" height="59" rx="4" fill="#fff"/>
            <g id="Text_Stuff" data-name="Text Stuff" transform="translate(9.858 17.986)">
              <rect id="Label" width="79.734" height="8.847" rx="3" fill="#dde3e9"/>
              <rect id="Label-2" data-name="Label" width="53.52" height="8.847" rx="3" transform="translate(0 14.745)" fill="#dde3e9"/>
            </g>
            <g id="Check" transform="translate(120.001 22.001)">
              <circle id="Background-5" data-name="Background" cx="7.5" cy="7.5" r="7.5" fill="#dde3e9"/>
              <circle id="Indicator" cx="3.5" cy="3.5" r="3.5" transform="translate(4 4)" fill="#f2f2f2"/>
            </g>
          </g>
          <g id="Row-6" data-name="Row" transform="translate(0 68)">
            <rect id="Background-6" data-name="Background" width="143" height="46" rx="4" fill="#fff"/>
            <g id="Text-5" data-name="Text" transform="translate(42.625 13.773)">
              <rect id="Name-9" data-name="Name" width="79.734" height="6.881" rx="3" fill="#dde3e9"/>
              <rect id="Name-10" data-name="Name" width="53.52" height="6.881" rx="3" transform="translate(0 11.469)" fill="#dde3e9"/>
            </g>
            <circle id="Avatar-5" data-name="Avatar" cx="13" cy="13" r="13" transform="translate(10 10)" fill="#c5cfd6"/>
          </g>
          <g id="Row-7" data-name="Row" transform="translate(0 122.001)">
            <rect id="Container-4" data-name="Container" width="143" height="46" rx="4" fill="#fff"/>
            <g id="Text_Stuff-2" data-name="Text Stuff" transform="translate(9.858 14.384)">
              <rect id="Label-3" data-name="Label" width="79.734" height="6.881" rx="3" fill="#dde3e9"/>
              <rect id="Label-4" data-name="Label" width="53.52" height="6.881" rx="3" transform="translate(0 11.469)" fill="#afb9c5"/>
            </g>
            <g id="Check-2" data-name="Check" transform="translate(120.001 15.998)">
              <circle id="Background-7" data-name="Background" cx="7.5" cy="7.5" r="7.5" fill="#dde3e9"/>
              <circle id="Indicator-2" data-name="Indicator" cx="3.5" cy="3.5" r="3.5" transform="translate(4 4)" fill="#f2f2f2"/>
            </g>
          </g>
          <g id="Row-8" data-name="Row" transform="translate(0 177)">
            <rect id="Background-8" data-name="Background" width="143" height="46" rx="4" fill="#fff"/>
            <g id="Text-6" data-name="Text" transform="translate(42.625 13.998)">
              <rect id="Name-11" data-name="Name" width="79.734" height="6.881" rx="3" fill="#dde3e9"/>
              <rect id="Name-12" data-name="Name" width="53.52" height="6.881" rx="3" transform="translate(0 11.469)" fill="#dde3e9"/>
            </g>
            <circle id="Avatar-6" data-name="Avatar" cx="13" cy="13" r="13" transform="translate(10 10)" fill="#c5cfd6"/>
          </g>
        </g>
      </g>
      <g id="Web" transform="translate(349.227 126.426)">
        <rect id="Container-5" data-name="Container" width="366" height="378" rx="8" fill="#f2f2f2"/>
        <rect id="Background-9" data-name="Background" width="76" height="89" rx="8" transform="translate(272 47)" fill="#fff"/>
        <g id="Profile_Info" data-name="Profile Info" transform="translate(282.999 63.999)">
          <circle id="Avatar-7" data-name="Avatar" cx="17.5" cy="17.5" r="17.5" transform="translate(10)" fill="#dde3e9"/>
          <rect id="Name-13" data-name="Name" width="54" height="7" rx="3.5" transform="translate(0 39)" fill="#dde3e9"/>
          <rect id="Name-14" data-name="Name" width="37" height="7" rx="3.5" transform="translate(9 50)" fill="#dde3e9"/>
        </g>
        <path id="Header" d="M8,0H358a8,8,0,0,1,8,8V30a0,0,0,0,1,0,0H0a0,0,0,0,1,0,0V8A8,8,0,0,1,8,0Z" fill="#c5cfd6"/>
        <g id="Buttons" transform="translate(9.998 10.999)">
          <ellipse id="buttons-2" data-name="buttons" cx="4" cy="4.5" rx="4" ry="4.5" fill="#f2f2f2"/>
          <circle id="buttons-3" data-name="buttons" cx="4.5" cy="4.5" r="4.5" transform="translate(13)" fill="#f2f2f2"/>
          <circle id="buttons-4" data-name="buttons" cx="4.5" cy="4.5" r="4.5" transform="translate(26)" fill="#f2f2f2"/>
        </g>
        <g id="Components" transform="translate(271.999 144.999)">
          <rect id="Background-10" data-name="Background" width="76" height="212" rx="8" fill="#fff"/>
          <g id="Rows-3" data-name="Rows" transform="translate(20 19)">
            <rect id="Data" width="37" height="29" rx="4" fill="#dde3e9"/>
            <rect id="Data-2" data-name="Data" width="37" height="28" rx="4" transform="translate(0 37)" fill="#afb9c5"/>
            <rect id="Data-3" data-name="Data" width="37" height="27" rx="4" transform="translate(0 74)" fill="#dde3e9"/>
            <rect id="Data-4" data-name="Data" width="37" height="27" rx="4" transform="translate(0 146)" fill="#dde3e9"/>
            <rect id="Data-5" data-name="Data" width="37" height="27" rx="4" transform="translate(0 110)" fill="#c5cfd6"/>
          </g>
        </g>
        <g id="Rows-4" data-name="Rows" transform="translate(16.999 49)">
          <g id="Row-9" data-name="Row" transform="translate(0 0)">
            <rect id="Container-6" data-name="Container" width="246" height="51" rx="4" fill="#fff"/>
            <g id="Text_Stuff-3" data-name="Text Stuff" transform="translate(10.641 14.956)">
              <rect id="Label-5" data-name="Label" width="182.405" height="7.7" rx="3" fill="#dde3e9"/>
              <rect id="Label-6" data-name="Label" width="122.436" height="7.7" rx="3" transform="translate(0 12.834)" fill="#dde3e9"/>
            </g>
            <g id="Check-3" data-name="Check" transform="translate(212.656 17.578)">
              <ellipse id="Background-11" data-name="Background" cx="7.646" cy="7.646" rx="7.646" ry="7.646" fill="#dde3e9"/>
              <ellipse id="Indicator-3" data-name="Indicator" cx="3.277" cy="3.277" rx="3.277" ry="3.277" transform="translate(4.369 4.369)" fill="#f2f2f2"/>
            </g>
          </g>
          <g id="Row-10" data-name="Row" transform="translate(0 59.999)">
            <rect id="Container-7" data-name="Container" width="246" height="42" rx="4" fill="#fff"/>
            <g id="Text_Stuff-4" data-name="Text Stuff" transform="translate(10.641 12.409)">
              <rect id="Label-7" data-name="Label" width="182.405" height="6.39" rx="3" fill="#dde3e9"/>
              <rect id="Label-8" data-name="Label" width="122.436" height="6.39" rx="3" transform="translate(0 10.649)" fill="#dde3e9"/>
            </g>
            <g id="Check-4" data-name="Check" transform="translate(212.656 13.283)">
              <ellipse id="Background-12" data-name="Background" cx="7.646" cy="7.646" rx="7.646" ry="7.646" fill="#dde3e9"/>
              <ellipse id="Indicator-4" data-name="Indicator" cx="3.277" cy="3.277" rx="3.277" ry="3.277" transform="translate(4.369 4.369)" fill="#f2f2f2"/>
            </g>
          </g>
          <g id="Row-11" data-name="Row" transform="translate(0 110.999)">
            <rect id="Container-8" data-name="Container" width="246" height="43" rx="4" fill="#fff"/>
            <g id="Text_Stuff-5" data-name="Text Stuff" transform="translate(10.641 12.745)">
              <rect id="Label-9" data-name="Label" width="182.405" height="6.39" rx="3" fill="#dde3e9"/>
              <rect id="Label-10" data-name="Label" width="122.436" height="6.39" rx="3" transform="translate(0 10.649)" fill="#dde3e9"/>
            </g>
            <g id="Check-5" data-name="Check" transform="translate(212.656 13.619)">
              <ellipse id="Background-13" data-name="Background" cx="7.646" cy="7.646" rx="7.646" ry="7.646" fill="#dde3e9"/>
              <ellipse id="Indicator-5" data-name="Indicator" cx="3.277" cy="3.277" rx="3.277" ry="3.277" transform="translate(4.369 4.369)" fill="#afb9c5"/>
            </g>
          </g>
          <g id="Row-12" data-name="Row" transform="translate(0 264.999)">
            <rect id="Container-9" data-name="Container" width="246" height="43" rx="4" fill="#fff"/>
            <g id="Text_Stuff-6" data-name="Text Stuff" transform="translate(10.641 12.751)">
              <rect id="Label-11" data-name="Label" width="182.405" height="6.39" rx="3" fill="#dde3e9"/>
              <rect id="Label-12" data-name="Label" width="122.436" height="6.39" rx="3" transform="translate(0 10.649)" fill="#dde3e9"/>
            </g>
            <g id="Check-6" data-name="Check" transform="translate(212.656 13.625)">
              <ellipse id="Background-14" data-name="Background" cx="7.646" cy="7.646" rx="7.646" ry="7.646" fill="#dde3e9"/>
              <ellipse id="Indicator-6" data-name="Indicator" cx="3.277" cy="3.277" rx="3.277" ry="3.277" transform="translate(4.369 4.369)" fill="#f2f2f2"/>
            </g>
          </g>
          <g id="Row-13" data-name="Row" transform="translate(0 214)">
            <rect id="Container-10" data-name="Container" width="246" height="42" rx="4" fill="#fff"/>
            <g id="Text_Stuff-7" data-name="Text Stuff" transform="translate(10.641 12.415)">
              <rect id="Label-13" data-name="Label" width="182.405" height="6.39" rx="3" fill="#dde3e9"/>
              <rect id="Label-14" data-name="Label" width="122.436" height="6.39" rx="3" transform="translate(0 10.649)" fill="#dde3e9"/>
            </g>
            <g id="Check-7" data-name="Check" transform="translate(212.656 13.289)">
              <ellipse id="Background-15" data-name="Background" cx="7.646" cy="7.646" rx="7.646" ry="7.646" fill="#dde3e9"/>
              <ellipse id="Indicator-7" data-name="Indicator" cx="3.277" cy="3.277" rx="3.277" ry="3.277" transform="translate(4.369 4.369)" fill="#f2f2f2"/>
            </g>
          </g>
          <g id="Row-14" data-name="Row" transform="translate(0 161.998)">
            <rect id="Container-11" data-name="Container" width="246" height="43" rx="4" fill="#fff"/>
            <g id="Text_Stuff-8" data-name="Text Stuff" transform="translate(10.641 13.081)">
              <rect id="Label-15" data-name="Label" width="182.405" height="6.39" rx="3" fill="#dde3e9"/>
              <rect id="Label-16" data-name="Label" width="122.436" height="6.39" rx="3" transform="translate(0 10.649)" fill="#dde3e9"/>
            </g>
            <g id="Check-8" data-name="Check" transform="translate(212.656 13.955)">
              <ellipse id="Background-16" data-name="Background" cx="7.646" cy="7.646" rx="7.646" ry="7.646" fill="#dde3e9"/>
              <ellipse id="Indicator-8" data-name="Indicator" cx="3.277" cy="3.277" rx="3.277" ry="3.277" transform="translate(4.369 4.369)" fill="#f2f2f2"/>
            </g>
          </g>
        </g>
      </g>
      <rect id="Value" width="7" height="27" rx="3.5" transform="translate(634.269 35)" fill="#ff9926"/>
      <rect id="Value-2" data-name="Value" width="6" height="45" rx="3" transform="translate(650.269 17)" fill="#dde3e9"/>
      <rect id="Value-3" data-name="Value" width="7" height="53" rx="3.5" transform="translate(665.269 9)" fill="#afb9c5"/>
      <rect id="Value-4" data-name="Value" width="7" height="45" rx="3.5" transform="translate(680.269 17)" fill="#0a58a5"/>
      <rect id="Value-5" data-name="Value" width="6" height="62" rx="3" transform="translate(696.269)" fill="#59b224"/>
      <path id="Value-6" data-name="Value" d="M31.731,31.133a8.819,8.819,0,1,1-6.445-14.8V0A25.281,25.281,0,0,0,0,25.122,25.281,25.281,0,0,0,25.286,50.243a24.983,24.983,0,0,0,18.4-7.954Z" transform="translate(552.07 14.5)" fill="#f2f2f2"/>
      <path id="Value-7" data-name="Value" d="M0,0V16.329a8.793,8.793,0,0,1,8.793,8.793H25.122A25.2,25.2,0,0,0,0,0Z" transform="translate(577.193 14.5)" fill="#f63029"/>
      <path id="Value-8" data-name="Value" d="M3.356,0A8.716,8.716,0,0,1,0,6.874L10.045,19.66A24.914,24.914,0,0,0,19.66,0Z" transform="translate(582.654 39.621)" fill="#c5cfd6"/>
      <g id="Image" transform="translate(50.341 5.561)">
        <path id="Fill_35" data-name="Fill 35" d="M1.008.987C1,1,1,1.009.993,1.022,1,1.011,1.008.967,1.008.987" transform="translate(50.844 56.759)" fill="#c5cfd6"/>
        <path id="Fill_37" data-name="Fill 37" d="M1,1a.1.1,0,0,0,0,.011C1,1,1.015.97,1,1" transform="translate(50.845 56.76)" fill="#c5cfd6"/>
        <path id="Fill_39" data-name="Fill 39" d="M1.08.832c-.015.044-.035.085-.052.129C1.036.939,1.045.922,1.053.9c-.227.568-.083.2.026-.068" transform="translate(50.839 56.746)" fill="#c5cfd6"/>
        <path id="Fill_41" data-name="Fill 41" d="M1.027.953,1,1.014c-.063.122.026-.061.026-.061" transform="translate(50.843 56.757)" fill="#c5cfd6"/>
        <path id="Fill_43" data-name="Fill 43" d="M1,1H1V1Z" transform="translate(50.845 56.761)" fill="#c5cfd6"/>
        <path id="Fill_45" data-name="Fill 45" d="M1,1S1,1,1,1,1,1,1,1" transform="translate(50.845 56.761)" fill="#c5cfd6"/>
        <path id="Fill_47" data-name="Fill 47" d="M.99,1.02c-.013.026.061-.1,0,0" transform="translate(50.844 56.759)" fill="#c5cfd6"/>
        <path id="Fill_49" data-name="Fill 49" d="M1,1,1,1S1,1,1,1" transform="translate(50.845 56.761)" fill="#c5cfd6"/>
        <rect id="Photo_Background" data-name="Photo Background" width="104" height="69" rx="4" fill="#dde3e9"/>
        <g id="icons8-night_landscape" transform="translate(8.155 20.625)">
          <path id="Mountains" d="M30.583,0,0,49.151H61.166Z" fill="#afb9c5"/>
          <path id="Mountains-2" data-name="Mountains" d="M26.76,0,0,36.044H53.52Z" transform="translate(33.86 13.107)" fill="#c5cfd6"/>
        </g>
        <ellipse id="Sun" cx="10" cy="9.5" rx="10" ry="9.5" transform="translate(71 14)" fill="#fff"/>
      </g>
    </g>
    <g id="Image_à_retourner_1" data-name="Image à retourner 1" transform="translate(1324.637 313.754)">
      <path id="Tracé_3420" data-name="Tracé 3420" d="M268.92,140.154c-21.728,0-29.631-26.014-41.98-40.289C218.107,89.651,203.034,92.7,198.572,78.4c-11.216-35.957,18.814-61.264,57.99-61.264s65.592,22.194,71.3,55.56S308.1,140.154,268.92,140.154Z" transform="translate(85.292)" fill="#191847"/>
      <path id="Tracé_3421" data-name="Tracé 3421" d="M280.784,178.491l-15.892-73.059C273.754,95.171,279.751,82.6,278.751,68.5c-2.885-40.6-60.19-31.668-71.335-11.177s-9.823,72.468,4.582,76.13c5.746,1.46,17.983-2.116,30.439-9.521l-7.816,54.558Z" transform="translate(86.975 10.119)" fill="#b28b67"/>
      <path id="Tracé_3422" data-name="Tracé 3422" d="M265.059,115.167c2.523,0,6.591-2.429,10.615-6.337A49.734,49.734,0,0,0,286.8,92.3a39.576,39.576,0,0,0,2.523-22.5c-1.658-8.927-6.545-17.412-14.523-25.221a42.872,42.872,0,0,0-14.1-9.361,39.308,39.308,0,0,0-14.6-2.757c-13.56,0-24.889,6.356-30.439,10.146-7.8,5.329-13.511,11.93-13.9,16.052a2.937,2.937,0,0,0,2.751,3.4c9.21,1.731,26.8,10.4,40.312,21.92a11.962,11.962,0,0,1,5.576-1.375,11.57,11.57,0,0,1,11.705,11.407,11.121,11.121,0,0,1-2.346,6.852,36.54,36.54,0,0,1,5.287,14.311Z" transform="translate(87.741 6.782)" fill="#191847"/>
      <path id="Tracé_3423" data-name="Tracé 3423" d="M494.892,398.989c2.6-4.36,5.538-8.718,14.491-6.492,15.975,3.969,29.521,14.149,44.418.417,1.831-1.688,3.174-6.964-3.073-9.665-15.557-6.743-38.54-19.368-42.268-24.27q-7.626-10.028-47.257-114.486l-38.96,7.729q58.769,109.526,63.042,116.1c6.4,9.857.433,27.923-1.776,37.437a11.922,11.922,0,0,0,2.712.339C490.9,406.085,492.781,402.538,494.892,398.989ZM182.693,236.15,113.8,205.9Q95.7,187.86,78.839,178.476c-3.361-1.069-9.1-1.392-2.976,7.555s12.165,18.634,9.719,21.769-9.537-.325-12.339,4.774q-2.8,5.1,35.854,12.2l51.595,39.556Z" transform="translate(30.789 71.174)" fill="#b28b67"/>
      <path id="Tracé_3424" data-name="Tracé 3424" d="M301.506,123.891l-16.436-2.82c-35.805,34.722-50.425,118.153-74.279,129.195-22.568,10.434-54.539.329-92.544-13.32L106.6,262.952C141.14,300.318,214.7,331.9,244.525,313.883,292.206,285.074,303.227,182.174,301.506,123.891Z" transform="translate(45.639 46.003)" fill="#db2721"/>
      <path id="Tracé_3425" data-name="Tracé 3425" d="M337.616,332.736H192.151c-6.647,0-5.394-9.6-4.433-14.44C198.807,262.4,242.1,202.146,242.1,122.58L284.055,116C318.761,171.816,330.762,240.537,337.616,332.736Z" transform="translate(81.198 43.758)" fill="#dde3e9"/>
      <path id="Tracé_3426" data-name="Tracé 3426" d="M443.43,385.7Q413.971,202.99,272.8,116H256.188s-56.5,192.6-31.16,256.662H355.976c-2.072-31.251-8.715-64.3-17.813-96.519q44.481,80.235,74.779,115.538Z" transform="translate(95.159 43.758)" fill="#ff4133"/>
      <path id="Tracé_3427" data-name="Tracé 3427" d="M220.081,582.586H452.339A23.083,23.083,0,0,0,475.421,559.5V369.082A23.083,23.083,0,0,0,452.339,346H220.081A23.08,23.08,0,0,0,197,369.082V559.5a23.08,23.08,0,0,0,23.082,23.082ZM416.617,399.422a5.772,5.772,0,0,1,5.77,5.77v118.2a5.772,5.772,0,0,1-5.77,5.77H255.8a5.777,5.777,0,0,1-5.77-5.77v-118.2a5.77,5.77,0,0,1,5.77-5.77Z" transform="translate(85.647 145.556)" fill="#c5cfd6"/>
      <path id="Tracé_3428" data-name="Tracé 3428" d="M72.062,570.427q56.225-68.658,76.088-101.8c22.672-37.834,41.228-71.5,47.084-84.356,13.964-30.664-32.147-45.024-42.583-30.72q-23.695,32.474-101.2,204.363Z" transform="translate(21.228 146.436)" fill="#b28b67"/>
      <path id="Tracé_3429" data-name="Tracé 3429" d="M146.541,560.036l69.766-175.6c14.921-32.011-57.127-53.053-68.091-38.155C123.309,380.1,64.14,513.522,56.723,523.6Z" transform="translate(23.561 143.519)" fill="#014486"/>
      <path id="Tracé_3430" data-name="Tracé 3430" d="M297,512.483c-13.588-19.821-63.017-86.51-89.936-114.1-7.738-7.933-15.286-15.541-22.427-22.636-21.225-21.075-63.482,14.351-42.3,33.551C195.091,457.116,272.06,521.666,278.49,527.422,287.5,535.489,305.54,524.942,297,512.483Z" transform="translate(58.895 155.855)" fill="#b28b67"/>
      <path id="Tracé_3431" data-name="Tracé 3431" d="M264.036,455.546a3.217,3.217,0,0,1,1.033-.782,3.251,3.251,0,0,1,1.258-.311,3.22,3.22,0,0,1,2.369.908l8.07,7.836a103.252,103.252,0,0,1,5.1,11.724l-78.6,45.378s-8.913-8.358-2.777-12.979,10.125-7.79,10.125-7.79l27.125-37.375a1.609,1.609,0,0,1,.471-.431,1.573,1.573,0,0,1,.6-.216,1.607,1.607,0,0,1,1.212.317l5.637,4.341s7.758-.677,11.578-2.884Z" transform="translate(91.238 214.957)" fill="#e4e4e4"/>
      <path id="Tracé_3432" data-name="Tracé 3432" d="M104.893,498.415a3.8,3.8,0,0,1,4.883,2.558l3.628,12.79a122.114,122.114,0,0,1-1.714,15H4.459S.276,514.947,9.285,513.845s14.967-1.982,14.967-1.982l49.836-22.219a1.907,1.907,0,0,1,1.479-.03,1.906,1.906,0,0,1,1.053,1.04l3.2,7.773s8.337,3.9,13.549,3.9Z" transform="translate(0 209.06)" fill="#e4e4e4"/>
      <path id="Tracé_3433" data-name="Tracé 3433" d="M218.395,415.779S305.366,401.609,334.9,396.4c56.13-9.9,72.5-40.1,62.819-106H294.307c-20.528,5.928-171.551,73.329-171.551,73.329-18.115,8.992-14.74,35.507-11.43,44.242.2.534,91.614,156.984,91.614,156.984l84.6-53.894-69.3-88.929S215.491,416.6,218.395,415.779Z" transform="translate(46.567 120.947)" fill="#0a58a5"/>
    </g>
  </g>
</svg>
