<svg xmlns="http://www.w3.org/2000/svg" xmlns:xlink="http://www.w3.org/1999/xlink" width="368" height="281.247" viewBox="0 0 368 281.247"><defs><style>.a{fill:#91b3fa;}.b,.by,.n{fill:#fff;}.b{opacity:0.57;}.c{fill:#bdd0fb;}.d{fill:url(#a);}.e{fill:url(#b);}.f{fill:url(#c);}.g{fill:url(#d);}.h{fill:url(#e);}.i{fill:#fed12f;}.j{fill:url(#f);}.k{fill:url(#g);}.l{fill:url(#h);}.m{opacity:0.72;}.o{fill:url(#i);}.p{fill:url(#j);}.q{fill:url(#k);}.r{fill:url(#l);}.s{fill:url(#m);}.t{fill:url(#n);}.u{fill:url(#o);}.v{fill:url(#p);}.w{fill:url(#q);}.x{fill:#45b985;}.y{fill:url(#r);}.z{fill:url(#s);}.aa{fill:url(#t);}.ab{fill:url(#u);}.ac{fill:url(#v);}.ad{fill:url(#w);}.ae{fill:url(#x);}.af{fill:url(#y);}.ag{fill:url(#z);}.ah{fill:url(#aa);}.ai{fill:url(#ab);}.aj{fill:url(#ac);}.ak{fill:url(#ad);}.al{fill:url(#ae);}.am{fill:url(#af);}.an{fill:url(#ag);}.ao{fill:url(#ah);}.ap{fill:url(#ai);}.aq{fill:url(#aj);}.ar{fill:url(#ak);}.as{fill:url(#al);}.at{fill:url(#am);}.au{fill:url(#an);}.av{fill:url(#ao);}.aw{fill:url(#ap);}.ax{fill:url(#aq);}.ay{fill:#ff9493;}.az{fill:url(#ar);}.ba{fill:url(#as);}.bb{fill:url(#at);}.bc{fill:url(#au);}.bd{fill:url(#av);}.be{fill:url(#aw);}.bf{fill:url(#ax);}.bg{fill:url(#ay);}.bh{fill:url(#az);}.bi{fill:url(#ba);}.bj{fill:url(#bb);}.bk{fill:url(#bc);}.bl{fill:#89cdff;}.bm{fill:url(#bd);}.bn{fill:url(#be);}.bo{fill:url(#bf);}.bp{fill:url(#bg);}.bq{fill:url(#bh);}.br{fill:url(#bi);}.bs{fill:url(#bj);}.bt{fill:url(#bk);}.bu{fill:url(#bl);}.bv{fill:url(#bm);}.bw{fill:url(#bn);}.bx{fill:url(#bo);}.by{opacity:0.6;}.bz{fill:url(#bp);}.ca{fill:#2b4ef7;}.cb{fill:url(#bq);}.cc{fill:url(#br);}.cd{fill:url(#bs);}.ce{fill:url(#bt);}.cf{fill:url(#bv);}</style><linearGradient id="a" x1="0.531" y1="0.127" x2="0.328" y2="1.542" gradientUnits="objectBoundingBox"><stop offset="0" stop-color="#09005d"/><stop offset="1" stop-color="#1a0f91"/></linearGradient><linearGradient id="b" x1="0.457" y1="1.875" x2="-0.174" y2="23.659" gradientUnits="objectBoundingBox"><stop offset="0" stop-color="#4042e2"/><stop offset="1" stop-color="#4f52ff"/></linearGradient><linearGradient id="c" x1="0.416" y1="2.737" x2="-0.105" y2="17.472" xlink:href="#b"/><linearGradient id="d" x1="0.379" y1="3.815" x2="-0.133" y2="18.536" xlink:href="#b"/><linearGradient id="e" x1="0.332" y1="5.009" x2="-0.21" y2="19.87" xlink:href="#b"/><linearGradient id="f" x1="0.464" y1="0.304" x2="0.798" y2="2.219" gradientUnits="objectBoundingBox"><stop offset="0" stop-color="#e1473d"/><stop offset="1" stop-color="#e9605a"/></linearGradient><linearGradient id="g" x1="0.464" y1="0.307" x2="0.799" y2="2.221" xlink:href="#f"/><linearGradient id="h" x1="0" y1="0.5" x2="1" y2="0.5" xlink:href="#f"/><linearGradient id="i" x1="-6.541" y1="7.063" x2="-5.555" y2="7.063" xlink:href="#b"/><linearGradient id="j" x1="-5.072" y1="12.222" x2="-4.356" y2="10.335" xlink:href="#b"/><linearGradient id="k" x1="-13.471" y1="7.716" x2="-12.753" y2="5.822" xlink:href="#b"/><linearGradient id="l" x1="0.017" y1="-0.128" x2="0.537" y2="0.634" xlink:href="#b"/><linearGradient id="m" x1="-69.539" y1="0.302" x2="-68.868" y2="1.263" gradientUnits="objectBoundingBox"><stop offset="0" stop-color="#ff928e"/><stop offset="1" stop-color="#feb3b1"/></linearGradient><linearGradient id="n" x1="-226.833" y1="0.5" x2="-225.833" y2="0.5" xlink:href="#b"/><linearGradient id="o" x1="-162.942" y1="1.602" x2="-161.907" y2="-1.187" xlink:href="#m"/><linearGradient id="p" x1="-140.184" y1="0.5" x2="-139.184" y2="0.5" xlink:href="#b"/><linearGradient id="q" x1="-72.74" y1="1.698" x2="-72.276" y2="-1.193" xlink:href="#m"/><linearGradient id="r" x1="-62.205" y1="-0.681" x2="-60.845" y2="2.359" xlink:href="#a"/><linearGradient id="s" x1="0.558" y1="0.117" x2="0.329" y2="1.912" xlink:href="#m"/><linearGradient id="t" x1="-49.698" y1="-61.463" x2="-51.021" y2="-60.555" xlink:href="#m"/><linearGradient id="u" x1="0.193" y1="-0.112" x2="1.955" y2="2.656" xlink:href="#b"/><linearGradient id="v" x1="-182.767" y1="-199" x2="-187.578" y2="-196.074" xlink:href="#m"/><linearGradient id="w" x1="-241.797" y1="1.592" x2="-240.185" y2="4.225" xlink:href="#m"/><linearGradient id="x" x1="39.902" y1="65.92" x2="40.485" y2="65.92" xlink:href="#m"/><linearGradient id="y" x1="-3.345" y1="0.5" x2="-2.345" y2="0.5" xlink:href="#b"/><linearGradient id="z" x1="3.902" y1="0.5" x2="4.902" y2="0.5" xlink:href="#a"/><linearGradient id="aa" x1="4.533" y1="0.5" x2="5.533" y2="0.5" xlink:href="#a"/><linearGradient id="ab" x1="10.885" y1="0.5" x2="11.885" y2="0.5" xlink:href="#a"/><linearGradient id="ac" x1="10.885" y1="0.5" x2="11.885" y2="0.5" xlink:href="#a"/><linearGradient id="ad" x1="10.279" y1="0.5" x2="11.279" y2="0.5" xlink:href="#a"/><linearGradient id="ae" x1="11.369" y1="0.5" x2="12.369" y2="0.5" xlink:href="#a"/><linearGradient id="af" x1="9.513" y1="0.5" x2="10.513" y2="0.5" xlink:href="#a"/><linearGradient id="ag" x1="8.908" y1="0.5" x2="9.908" y2="0.5" xlink:href="#a"/><linearGradient id="ah" x1="19.055" y1="-0.551" x2="18.954" y2="1.401" xlink:href="#a"/><linearGradient id="ai" x1="17.83" y1="0.236" x2="17.613" y2="9.823" gradientUnits="objectBoundingBox"><stop offset="0" stop-color="#020039"/><stop offset="1" stop-color="#090056"/></linearGradient><linearGradient id="aj" x1="62.032" y1="0.5" x2="63.032" y2="0.5" xlink:href="#m"/><linearGradient id="ak" x1="31.354" y1="0.589" x2="30.2" y2="1.431" xlink:href="#ai"/><linearGradient id="al" x1="23.812" y1="0.5" x2="24.812" y2="0.5" xlink:href="#a"/><linearGradient id="am" x1="44.157" y1="0.5" x2="45.157" y2="0.5" xlink:href="#m"/><linearGradient id="an" x1="6.844" y1="0.083" x2="5.834" y2="0.8" xlink:href="#b"/><linearGradient id="ao" x1="39.448" y1="3.433" x2="40.665" y2="0.468" xlink:href="#b"/><linearGradient id="ap" x1="0.038" y1="-0.154" x2="0.812" y2="1.232" xlink:href="#a"/><linearGradient id="aq" x1="1.201" y1="-0.685" x2="-0.304" y2="2.321" xlink:href="#m"/><linearGradient id="ar" x1="0" y1="0.5" x2="1" y2="0.5" xlink:href="#b"/><linearGradient id="as" x1="-118.01" y1="-0.489" x2="-119.352" y2="0.834" xlink:href="#m"/><linearGradient id="at" x1="-83.245" y1="0.099" x2="-82.12" y2="0.099" xlink:href="#a"/><linearGradient id="au" x1="-321.573" y1="0.07" x2="-318.681" y2="-2.415" xlink:href="#m"/><linearGradient id="av" x1="1.078" y1="-2.646" x2="0.727" y2="-0.79" xlink:href="#m"/><linearGradient id="aw" x1="1.994" y1="-7.038" x2="0.968" y2="-1.905" xlink:href="#m"/><linearGradient id="ax" x1="30.851" y1="-0.484" x2="28.016" y2="6.012" xlink:href="#a"/><linearGradient id="ay" x1="118.775" y1="0.5" x2="119.775" y2="0.5" xlink:href="#m"/><linearGradient id="az" x1="35.3" y1="0.802" x2="40.185" y2="-0.514" xlink:href="#b"/><linearGradient id="ba" x1="77.114" y1="-2.223" x2="70.097" y2="5.384" xlink:href="#a"/><linearGradient id="bb" x1="137.561" y1="0.5" x2="138.561" y2="0.5" xlink:href="#m"/><linearGradient id="bc" x1="24.988" y1="0.721" x2="28.429" y2="-0.571" xlink:href="#b"/><linearGradient id="bd" x1="342.221" y1="1.605" x2="344.221" y2="4.278" xlink:href="#m"/><linearGradient id="be" x1="-3.386" y1="4.017" x2="0.99" y2="0.127" xlink:href="#m"/><linearGradient id="bf" x1="17.532" y1="-0.062" x2="18.045" y2="2.428" xlink:href="#a"/><linearGradient id="bg" x1="90.859" y1="-3.497" x2="90.285" y2="1.805" xlink:href="#b"/><linearGradient id="bh" x1="47.705" y1="-1.235" x2="47.561" y2="1.146" xlink:href="#b"/><linearGradient id="bi" x1="58.969" y1="0.5" x2="59.969" y2="0.5" xlink:href="#m"/><linearGradient id="bj" x1="0.638" y1="-0.029" x2="0.239" y2="1.761" xlink:href="#m"/><linearGradient id="bk" x1="-10.142" y1="77.864" x2="-11.145" y2="76.636" xlink:href="#m"/><linearGradient id="bl" x1="-71.367" y1="-19.694" x2="-71.162" y2="-18.515" xlink:href="#a"/><linearGradient id="bm" x1="-33.666" y1="375.589" x2="-36.934" y2="369.637" xlink:href="#m"/><linearGradient id="bn" x1="10.458" y1="21.339" x2="9.406" y2="23.725" xlink:href="#f"/><linearGradient id="bo" x1="7.668" y1="21.995" x2="6.833" y2="24.38" gradientUnits="objectBoundingBox"><stop offset="0" stop-color="#fe7062"/><stop offset="1" stop-color="#ff928e"/></linearGradient><linearGradient id="bp" x1="10.373" y1="14.474" x2="9.249" y2="16.079" xlink:href="#bo"/><linearGradient id="bq" x1="35.334" y1="-28.182" x2="34.293" y2="-26.601" xlink:href="#bo"/><linearGradient id="br" x1="55.578" y1="-40.583" x2="56.623" y2="-40.583" xlink:href="#a"/><linearGradient id="bs" y1="0.5" x2="1" y2="0.5" gradientUnits="objectBoundingBox"><stop offset="0" stop-color="#dae3fe"/><stop offset="1" stop-color="#e9effd"/></linearGradient><linearGradient id="bt" x1="85.628" y1="-60.952" x2="86.673" y2="-60.952" xlink:href="#a"/><linearGradient id="bv" x1="0" y1="0.5" x2="1" y2="0.5" xlink:href="#m"/></defs><g transform="translate(-822 -195.001)"><g transform="translate(651.248 -17.258)"><g transform="translate(297.939 397.855)"><g transform="translate(0 37.129)"><path class="a" d="M1015.16,1269.231a23.264,23.264,0,0,0-12.642-9.033,16.5,16.5,0,0,1-9.952-7.35q-.35-.576-.756-1.136c-4.1-5.653-10.872-7.732-15.133-4.643s-4.4,10.174-.3,15.827a16.381,16.381,0,0,0,2.8,3,16.585,16.585,0,0,1,5.949,10.662,24.33,24.33,0,0,0,4.523,11.152c3.808,5.256,9.119,8.542,14.282,9.381a16.212,16.212,0,0,1,5.551,1.981c2.842,1.653,6.12,1.794,8.513.06,2.581-1.87,3.41-5.4,2.4-8.868a17.315,17.315,0,0,1-.6-6.052A23.211,23.211,0,0,0,1015.16,1269.231Z" transform="translate(-973.391 -1245.637)"/><path class="b" d="M1014.868,1274.883c3.264,3.333,6.418,6.767,9.537,10.234.78.867,1.546,1.745,2.315,2.622l1.153,1.315,1.142,1.324c.758.886,1.528,1.761,2.276,2.656l2.244,2.683c1.473,1.808,2.962,3.6,4.4,5.438.721.917,1.46,1.819,2.162,2.75l2.12,2.783c2.79,3.739,5.486,7.55,7.986,11.49l-.168.109-1.982-2.876-.494-.72-.512-.708-1.026-1.413-1.023-1.415c-.34-.472-.7-.932-1.046-1.4-.7-.929-1.4-1.863-2.106-2.786q-4.286-5.516-8.744-10.9c-1.5-1.778-2.993-3.569-4.509-5.337l-1.134-1.329-1.145-1.32c-.762-.88-1.525-1.76-2.3-2.633q-2.293-2.637-4.624-5.24t-4.676-5.195Z" transform="translate(-1005.732 -1268.521)"/></g><g transform="translate(16.086 0)"><path class="c" d="M1093.739,1127.356a33.116,33.116,0,0,0-10.682-19.411,23.484,23.484,0,0,1-8.261-15.588q-.094-.957-.269-1.927c-1.772-9.793-9.209-16.646-16.611-15.307s-11.965,10.364-10.193,20.157a23.31,23.31,0,0,0,1.749,5.593,23.591,23.591,0,0,1,1.055,17.375,34.617,34.617,0,0,0-1.085,17.125c1.648,9.1,6.45,16.606,12.579,20.87a23.126,23.126,0,0,1,5.921,5.971c2.635,3.879,6.769,6.083,10.925,5.331,4.483-.811,7.736-4.835,8.587-9.917a24.675,24.675,0,0,1,2.971-8.152A33.041,33.041,0,0,0,1093.739,1127.356Z" transform="translate(-1047.34 -1074.955)"/><path class="b" d="M1115.555,1121.459c2.138,6.3,4.072,12.658,5.94,19.039.468,1.6.909,3.2,1.357,4.8l.67,2.4.65,2.407c.427,1.607.877,3.207,1.286,4.818l1.227,4.834c.777,3.233,1.582,6.459,2.3,9.706.361,1.623.753,3.239,1.081,4.869l1.006,4.886c1.275,6.527,2.387,13.09,3.164,19.7l-.284.036-.77-4.92-.19-1.23-.221-1.225-.445-2.449-.441-2.45c-.146-.817-.321-1.628-.481-2.443-.329-1.627-.645-3.256-.985-4.88-1.4-6.49-2.888-12.961-4.508-19.4-.835-3.214-1.642-6.434-2.5-9.642l-.636-2.408-.656-2.4c-.437-1.6-.874-3.2-1.327-4.8q-1.318-4.8-2.707-9.588c-.911-3.194-1.852-6.38-2.8-9.562Z" transform="translate(-1100.503 -1111.343)"/></g></g><g transform="translate(347.174 402.433)"><g transform="translate(15.516 33.915)"><path class="a" d="M1276.771,1274.724a22.762,22.762,0,0,1,12.44-8.739,16.146,16.146,0,0,0,9.8-7.114q.347-.561.749-1.106c4.052-5.5,10.7-7.479,14.844-4.424s4.222,9.99.169,15.488a16.035,16.035,0,0,1-2.767,2.918,16.228,16.228,0,0,0-5.905,10.385,23.809,23.809,0,0,1-4.513,10.876,22.221,22.221,0,0,1-14.048,9.066,15.861,15.861,0,0,0-5.447,1.894c-2.794,1.6-6,1.707-8.33-.008-2.511-1.85-3.294-5.309-2.28-8.7a16.948,16.948,0,0,0,.639-5.917A22.709,22.709,0,0,1,1276.771,1274.724Z" transform="translate(-1271.047 -1251.906)"/><path class="b" d="M1319.168,1280.478c-3.22,3.235-6.333,6.571-9.412,9.939-.77.842-1.527,1.7-2.286,2.547l-1.139,1.277-1.128,1.287c-.749.861-1.509,1.711-2.248,2.581l-2.217,2.608c-1.456,1.757-2.927,3.5-4.35,5.286-.713.891-1.443,1.768-2.138,2.674l-2.1,2.706c-2.759,3.637-5.427,7.344-7.9,11.179l.164.108,1.962-2.8.489-.7.506-.688,1.015-1.375,1.012-1.377c.337-.459.69-.906,1.035-1.36.694-.9,1.382-1.811,2.082-2.71q4.237-5.363,8.641-10.592c1.485-1.728,2.956-3.469,4.454-5.187l1.12-1.291,1.13-1.282c.753-.855,1.506-1.711,2.268-2.558q2.263-2.562,4.565-5.091t4.615-5.046Z" transform="translate(-1281.379 -1274.263)"/></g><g transform="translate(0)"><path class="c" d="M1200.284,1145.523a31.3,31.3,0,0,1,10.1-18.345,22.193,22.193,0,0,0,7.807-14.732q.089-.9.254-1.822c1.675-9.255,8.7-15.732,15.7-14.465s11.308,9.795,9.633,19.05a22.028,22.028,0,0,1-1.653,5.285,22.3,22.3,0,0,0-1,16.421,32.708,32.708,0,0,1,1.026,16.184c-1.557,8.6-6.1,15.694-11.888,19.724a21.844,21.844,0,0,0-5.6,5.643c-2.49,3.666-6.4,5.748-10.324,5.038-4.237-.767-7.311-4.569-8.116-9.371a23.318,23.318,0,0,0-2.808-7.7A31.226,31.226,0,0,1,1200.284,1145.523Z" transform="translate(-1199.722 -1096)"/><path class="b" d="M1274.987,1139.949c-2.021,5.951-3.849,11.963-5.614,17.993-.442,1.507-.86,3.022-1.282,4.535l-.633,2.269-.614,2.275c-.4,1.518-.828,3.031-1.215,4.553l-1.16,4.568c-.734,3.055-1.495,6.1-2.172,9.173-.341,1.534-.712,3.061-1.021,4.6l-.951,4.617c-1.205,6.169-2.256,12.37-2.991,18.614l.269.034.728-4.65.179-1.162.208-1.158.421-2.315.417-2.315c.137-.772.3-1.539.454-2.308.311-1.537.61-3.077.931-4.613,1.324-6.133,2.729-12.249,4.261-18.335.789-3.037,1.552-6.081,2.362-9.112l.6-2.275.62-2.27c.413-1.514.825-3.028,1.253-4.538q1.245-4.54,2.559-9.061c.861-3.019,1.75-6.029,2.648-9.036Z" transform="translate(-1244.801 -1130.389)"/></g></g><g transform="translate(281.714 263.988)"><path class="d" d="M1164.06,1277.3c-.1-1.217-1.341-2.271-3.447-3.115,2.288-1.262,3.554-2.614,3.447-3.94-.324-4.013-13.032-6.263-28.386-5.025s-27.537,5.495-27.214,9.508c.1,1.217,1.342,2.271,3.447,3.115-2.288,1.261-3.554,2.614-3.447,3.94.1,1.217,1.342,2.271,3.447,3.115-2.288,1.262-3.554,2.614-3.447,3.94.1,1.217,1.342,2.271,3.447,3.115-2.288,1.262-3.554,2.614-3.447,3.94.143,1.775,2.712,3.2,6.857,4.14a35.628,35.628,0,0,0,.105,4.336c.6,7.395,8.919,13.193,19.92,13.193s20.523-7.906,20.631-15.324a37.463,37.463,0,0,0-.215-4.84c5.264-1.758,8.469-3.905,8.3-5.988-.1-1.217-1.341-2.271-3.447-3.115,2.288-1.262,3.554-2.614,3.447-3.94-.1-1.217-1.341-2.271-3.447-3.115C1162.9,1279.981,1164.167,1278.629,1164.06,1277.3Z" transform="translate(-1062.848 -1089.7)"/><g transform="translate(49.707 184.856)"><path class="e" d="M1156.041,1419.334a66.352,66.352,0,0,1-12.179-1,.369.369,0,1,1,.139-.724,79.433,79.433,0,0,0,20.287.641,87.219,87.219,0,0,0,17.014-2.935.369.369,0,0,1,.207.708,87.938,87.938,0,0,1-17.161,2.961C1161.491,1419.219,1158.7,1419.334,1156.041,1419.334Z" transform="translate(-1140.027 -1392.258)"/><path class="f" d="M1146.529,1379.938a57.94,57.94,0,0,1-14.953-1.621.369.369,0,0,1,.2-.709c5.321,1.515,13.89,1.985,22.921,1.257,8.933-.72,17.265-2.533,22.287-4.849a.369.369,0,1,1,.309.67c-5.1,2.35-13.521,4.187-22.536,4.915C1151.945,1379.827,1149.174,1379.938,1146.529,1379.938Z" transform="translate(-1130.438 -1359.924)"/><path class="g" d="M1143.323,1347.509c-6.4,0-11.994-.655-15.762-1.9a.369.369,0,1,1,.231-.7c5.243,1.729,14.131,2.3,23.776,1.519,8.933-.72,17.264-2.533,22.287-4.85a.369.369,0,0,1,.309.67c-5.1,2.35-13.522,4.188-22.536,4.915C1148.771,1347.4,1145.978,1347.509,1143.323,1347.509Z" transform="translate(-1127.307 -1334.545)"/><path class="h" d="M1152.361,1315.261a63.573,63.573,0,0,1-13.277-1.207.369.369,0,0,1,.16-.72c5.4,1.2,13.164,1.51,21.313.853,8.853-.714,17.142-2.507,22.173-4.8a.369.369,0,0,1,.306.671c-5.1,2.323-13.485,4.14-22.419,4.861C1157.794,1315.148,1155.015,1315.261,1152.361,1315.261Z" transform="translate(-1136.296 -1309.355)"/></g><path class="i" d="M934.111,611.558a51.917,51.917,0,0,0-9.3-18.153c-9.14-11.519-24.051-34.946-25.886-66.92-2.67-46.507,38.577-69.791,76.215-66.63s74.777,31.186,70.711,74.451c-2.5,26.621-17.4,46.814-28.5,58.411a61.609,61.609,0,0,0-14.79,26.2c-3.329,12.021-11.253,27-30.085,27.914C948.112,648.017,937.991,625.3,934.111,611.558Z" transform="translate(-898.803 -459.57)"/><path class="j" d="M1266.011,959.971l13.169-85.656c.272-1.77,1.143-2.958,1.945-2.654s1.232,1.984.96,3.754c-.007.047-.017.105-.025.152l-15,84.86c-.113.638-.437,1.041-.724.9S1265.917,960.589,1266.011,959.971Z" transform="translate(-1186.108 -781.98)"/><path class="k" d="M1145.159,963.1l-13.169-85.656c-.272-1.769-1.143-2.958-1.945-2.654s-1.232,1.984-.96,3.754c.007.047.017.105.025.152l15,84.86c.113.638.437,1.041.724.9S1145.254,963.715,1145.159,963.1Z" transform="translate(-1078.927 -784.427)"/><path class="l" d="M1187.225,812.957a1.381,1.381,0,0,0-1.729-.449l-7.333,3.426-2.545-7.253a1.556,1.556,0,0,0-.892-.9,1.813,1.813,0,0,0-2.253.694l-.013.023-6.031,11-5.6-15.653-.01-.026a1.787,1.787,0,0,0-.847-.955,2.2,2.2,0,0,0-2.769.545l-8.431,11.607a1.017,1.017,0,0,0,.3,1.465,1.413,1.413,0,0,0,1.793-.195l7.423-8.281,6.683,14.891.005.011a1.182,1.182,0,0,0,.589.577,1.4,1.4,0,0,0,1.749-.452l6.45-10.35,2.427,5.235.022.046a.983.983,0,0,0,.06.111,1.38,1.38,0,0,0,1.727.449l8.7-4.067A1.036,1.036,0,0,0,1187.225,812.957Z" transform="translate(-1094.247 -727.977)"/><g class="m" transform="translate(117.301 109.451)"><path class="n" d="M1439.576,975.238a1.54,1.54,0,0,1-1.235-2.458,97.279,97.279,0,0,0,6.117-9.292,1.539,1.539,0,1,1,2.666,1.54,100.262,100.262,0,0,1-6.312,9.589A1.535,1.535,0,0,1,1439.576,975.238Z" transform="translate(-1438.038 -962.719)"/></g></g><g transform="translate(230.976 266.088)"><g transform="translate(0 0)"><g transform="translate(66.656)"><g transform="translate(0)"><path class="o" d="M920.89,584.661a.412.412,0,0,0,.478-.016l3.985-3.046a21.857,21.857,0,0,0,6.947,1.363l2.54,4.321a.412.412,0,0,0,.437.2l5.9-1.192a.412.412,0,0,0,.327-.349l.663-4.969a21.855,21.855,0,0,0,5.873-3.953l4.855,1.26a.412.412,0,0,0,.447-.171l3.328-5.013a.412.412,0,0,0-.016-.478L953.6,568.63a21.84,21.84,0,0,0,1.363-6.946l4.322-2.54a.412.412,0,0,0,.195-.437l-1.192-5.9a.412.412,0,0,0-.349-.327l-4.969-.663a21.848,21.848,0,0,0-3.953-5.872l1.26-4.855a.412.412,0,0,0-.171-.447l-5.013-3.327a.412.412,0,0,0-.478.016l-3.985,3.046a21.852,21.852,0,0,0-6.946-1.362l-2.54-4.321a.412.412,0,0,0-.437-.2l-5.9,1.192a.412.412,0,0,0-.327.349l-.663,4.969a21.846,21.846,0,0,0-5.873,3.952L913.1,543.7a.412.412,0,0,0-.447.171l-3.328,5.012a.412.412,0,0,0,.016.478l3.046,3.985a21.849,21.849,0,0,0-1.363,6.946l-4.321,2.54a.413.413,0,0,0-.2.437l1.192,5.9a.412.412,0,0,0,.349.327l4.968.663a21.846,21.846,0,0,0,3.953,5.873l-1.26,4.855a.412.412,0,0,0,.171.447Z" transform="translate(-906.497 -534.493)"/><g transform="translate(20.662 20.661)"><path class="c" d="M1037.413,663.1a5.833,5.833,0,1,1-3.021,4.834A5.8,5.8,0,0,1,1037.413,663.1Zm5.142,9.363a4.849,4.849,0,1,0-7.177-4.482h0a4.847,4.847,0,0,0,7.177,4.482Z" transform="translate(-1034.385 -662.382)"/></g><path class="c" d="M985.849,606.819a14.932,14.932,0,0,1,4.266-1.562,15.01,15.01,0,1,1-2.031,28.867l.33-.93a14.026,14.026,0,1,0-9.072-10.447q.085.42.195.834a14.164,14.164,0,0,0,.47,1.448l.012.032.076.19q.07.173.145.344l-.9.394a15.123,15.123,0,0,1-.96-3.048h0A15.039,15.039,0,0,1,985.849,606.819Z" transform="translate(-966.511 -593.574)"/></g></g><g transform="translate(0 33.977)"><path class="p" d="M672.275,666.132a.372.372,0,0,0,.413.127l4.305-1.429a19.763,19.763,0,0,0,5.537,3.213l.9,4.444a.373.373,0,0,0,.316.3l5.393.721a.373.373,0,0,0,.382-.2l2.033-4.053a19.759,19.759,0,0,0,6.187-1.647l3.779,2.509a.373.373,0,0,0,.432-.014l4.323-3.3a.372.372,0,0,0,.128-.413l-1.429-4.305a19.766,19.766,0,0,0,3.214-5.537l4.444-.9a.372.372,0,0,0,.3-.316l.721-5.393a.373.373,0,0,0-.2-.382l-4.052-2.032a19.765,19.765,0,0,0-1.647-6.187l2.509-3.779a.373.373,0,0,0-.014-.432l-3.3-4.323a.373.373,0,0,0-.413-.128l-4.305,1.429a19.752,19.752,0,0,0-5.537-3.213l-.9-4.444a.372.372,0,0,0-.316-.3l-5.394-.721a.373.373,0,0,0-.383.2l-2.032,4.053a19.755,19.755,0,0,0-6.187,1.647l-3.779-2.509a.373.373,0,0,0-.433.014l-4.323,3.3a.372.372,0,0,0-.127.413l1.429,4.305a19.766,19.766,0,0,0-3.214,5.537l-4.444.9a.373.373,0,0,0-.3.316L665.563,649a.373.373,0,0,0,.2.383l4.052,2.032a19.763,19.763,0,0,0,1.647,6.187l-2.509,3.779a.372.372,0,0,0,.015.432Z" transform="translate(-665.56 -625.418)"/><g transform="translate(18.351 18.35)"><path class="c" d="M754.65,709.857a5.694,5.694,0,1,1-4.323,3.5h0a5.712,5.712,0,0,1,4.323-3.5Zm1.634,9.525a3.969,3.969,0,1,0-2.146-.225A3.974,3.974,0,0,0,756.284,719.383Z" transform="translate(-749.918 -709.775)"/></g><path class="c" d="M723.836,671.554a13.87,13.87,0,0,1,1.411-.171.017.017,0,0,0,.008,0,13.989,13.989,0,1,1-7.748,24.906l1.071-1.344a12.272,12.272,0,1,0-4.523-11.23h0a12.4,12.4,0,0,0-.081,2.475q0,.069.01.138l-1.713.136a14.1,14.1,0,0,1,.081-2.976c.01-.079.022-.157.034-.236A14.017,14.017,0,0,1,723.836,671.554Z" transform="translate(-702.076 -661.359)"/></g><g transform="translate(192.186 52.262)"><path class="q" d="M1562.618,756.8a.388.388,0,0,0,.451-.015l3.759-2.873a20.623,20.623,0,0,0,6.553,1.285l2.4,4.076a.389.389,0,0,0,.412.184l5.563-1.124a.388.388,0,0,0,.309-.329l.626-4.687a20.611,20.611,0,0,0,5.54-3.728l4.58,1.189a.389.389,0,0,0,.422-.161l3.139-4.729a.389.389,0,0,0-.015-.451l-2.874-3.759a20.6,20.6,0,0,0,1.285-6.553l4.077-2.4a.388.388,0,0,0,.184-.412l-1.124-5.563a.388.388,0,0,0-.329-.308l-4.687-.626a20.606,20.606,0,0,0-3.729-5.54l1.189-4.58a.389.389,0,0,0-.161-.422l-4.729-3.139a.389.389,0,0,0-.451.015l-3.759,2.874a20.606,20.606,0,0,0-6.553-1.285l-2.4-4.077a.389.389,0,0,0-.412-.184l-5.563,1.124a.388.388,0,0,0-.308.33l-.626,4.687a20.614,20.614,0,0,0-5.54,3.729l-4.58-1.189a.388.388,0,0,0-.422.161l-3.139,4.729a.389.389,0,0,0,.015.451l2.874,3.759a20.622,20.622,0,0,0-1.285,6.553l-4.077,2.4a.389.389,0,0,0-.184.412l1.124,5.563a.389.389,0,0,0,.33.308l4.687.626a20.615,20.615,0,0,0,3.729,5.54l-1.189,4.58a.389.389,0,0,0,.161.422Z" transform="translate(-1549.04 -709.475)"/><g transform="translate(19.06 19.06)"><path class="c" d="M1639.739,797.825a5.939,5.939,0,1,1-3.072,4.921h0a5.957,5.957,0,0,1,3.072-4.921Zm4.851,8.837a4.14,4.14,0,1,0-2.192.508A4.145,4.145,0,0,0,1644.59,806.662Z" transform="translate(-1636.66 -797.095)"/></g><path class="c" d="M1604.764,758.672a14.528,14.528,0,0,1,1.333-.648.018.018,0,0,0,.008,0,14.592,14.592,0,1,1,.831,27.194l.6-1.689a12.8,12.8,0,1,0-8.28-9.535h0a12.959,12.959,0,0,0,.762,2.468l.057.132-1.643.716a14.7,14.7,0,0,1-.932-2.961c-.017-.081-.032-.162-.047-.244A14.621,14.621,0,0,1,1604.764,758.672Z" transform="translate(-1586.73 -746.555)"/></g></g><g transform="translate(104.113 74.787)"><path class="r" d="M1659.353,992.843s4.373,2.127,5.177,4.57c.645,1.96,5.48,2.213,5.958,6.069a4.425,4.425,0,0,0,3.7,3.889c4.938.757,12.549,3.321,13.767,11.9.929,6.545-2.407,9.026-5.908,9.886a4.959,4.959,0,0,0-3.76,5.729c.5,2.49-.245,5.369-4.56,7.646-9.668,5.1-19.323-12.086-19.323-12.086l-1.979-30.01Z" transform="translate(-1541.864 -953.726)"/><path class="s" d="M1553.213,951.393s7.088,19.321,19.165,25.36c0,0-4.02,6.558-6.117,6.956,0,0-12.9-16.512-14.216-30.04Z" transform="translate(-1463.318 -921.292)"/><path class="t" d="M1780.665,1481.642l.356,2.93a1.211,1.211,0,0,0,1.062,1.059,18.749,18.749,0,0,0,3.922.061,1.036,1.036,0,0,0,.87-1.344,10.678,10.678,0,0,0-1.966-3.829h-3.251A1,1,0,0,0,1780.665,1481.642Z" transform="translate(-1642.2 -1335.317)"/><path class="u" d="M1654.87,1327.884l-.549,3.227s1.837,18.61,2.164,26.054a5.836,5.836,0,0,1-.863,3.315l-3.195,5.188,8.12-4.791.161-.991-1.329-1.827,1.741-20.848a6.4,6.4,0,0,0-.728-3.538l-1.679-3.155Z" transform="translate(-1541.864 -1215.884)"/><path class="v" d="M1647.5,1477.326h2.591a1.559,1.559,0,0,0,1.238-.607c.808-1.05,2.481-3.1,3.281-3.151,1.077-.072.939,3.758.939,3.758h.6l.765-4.759a2.817,2.817,0,0,0-1.478-2.945h0a3.983,3.983,0,0,1-1.582,2.627c-1.335.806-5.434,3.69-5.434,3.69a3.708,3.708,0,0,0-1.053.028A.685.685,0,0,0,1647.5,1477.326Z" transform="translate(-1537.476 -1326.789)"/><path class="w" d="M1714.778,1330.107s10.763,20.417,12.474,25.078a44.76,44.76,0,0,1,2.333,8.919c.036.575.752,1.127,2.724,1.127a1.892,1.892,0,0,0,1.761-.8,1.15,1.15,0,0,0,.043-1.114c-.623-1.26-2.6-5.287-3.33-7.113-.874-2.181-2.753-12.063-3.783-15.5s-2.2-7.163-6.684-10.6C1720.316,1330.107,1717.235,1327.089,1714.778,1330.107Z" transform="translate(-1590.651 -1216.574)"/><path class="x" d="M1629.052,1092.592c-2.776-11.765,4.257-18.419,4.257-18.419-4.438-4.26-12.524-6.2-12.524-6.2s-7.716,5.641-6.8,10.056c.536,2.588,5.424,15.5,5.424,15.5A10.737,10.737,0,0,0,1629.052,1092.592Z" transform="translate(-1511.724 -1012.514)"/><path class="y" d="M1652.973,1186.966c-1.13-3.4-6.156-5.825-6.156-5.825a10.737,10.737,0,0,1-9.644.94,19.34,19.34,0,0,0-.314,7.474c.7,3.6,5.088,26.736,5.088,26.736,6.915,1.4,17.55-1.41,17.55-1.41C1655.092,1207.061,1654.1,1190.37,1652.973,1186.966Z" transform="translate(-1529.49 -1101.063)"/><path class="z" d="M1653.014,1028.757l2.257,10.139c.216.893-.6.747-1.5.577-1.479-.279-3.385-.853-4.022-2a1.089,1.089,0,0,1-.115-.382l-.97-7.031a1.263,1.263,0,0,1,.739-1.327l1.871-.83A1.263,1.263,0,0,1,1653.014,1028.757Z" transform="translate(-1538.91 -981.071)"/><path class="aa" d="M1637.268,987.28a10,10,0,0,0-4.491,4.992c-1.818,3.863-.46,5.647,1.245,5.892a7.982,7.982,0,0,0,6.952-2.288C1643.671,993.38,1640.743,985.942,1637.268,987.28Z" transform="translate(-1525.812 -949.248)"/><path class="ab" d="M1648.226,981.427s2.017-5.652-2.994-5.719l-1.179.824s-1.839-3.134,1.179-4.63,6.55-.26,7.834,3.805,1.5,6.787-.633,8.732-3.017-.261-3.017-.261,1.163-1.819.69-2.793-1.566.2-1.566.2Z" transform="translate(-1534.878 -936.862)"/><path class="ac" d="M1665.188,1015.205s1.02-2.911,2.38-1.752-1.106,2.689-2.071,3.185Z" transform="translate(-1551.849 -969.639)"/><g transform="translate(85.456 25.856)"><path class="ad" d="M1540.77,939.642c-.108.344,1.144.867,1.881-.539.026-.674.436-3.561.033-4.11-2.144-2.924-4.409-3.113-4.409-3.113a9.75,9.75,0,0,0-1.178,2.328,2.826,2.826,0,0,0,.282,2.08c.354.638.837,1.467,1.294,2.116A2.791,2.791,0,0,0,1540.77,939.642Z" transform="translate(-1537.011 -931.88)"/></g><path class="ae" d="M1576.995,1077.3s-20.648,25.213-36.075-3.5a3.55,3.55,0,0,1-.111-1.793,17.1,17.1,0,0,0-.455-3.4.535.535,0,0,1,.475-.637h0a.731.731,0,0,1,.645.276l2.818,3.588a1.5,1.5,0,0,1-.8,1.786h0a.742.742,0,0,0-.275,1.121c11.732,15.379,31.354-1.5,31.713-1.3C1576.207,1074.153,1577.679,1074.931,1576.995,1077.3Z" transform="translate(-1454.162 -1012.513)"/><path class="af" d="M1161.93,821.855a.709.709,0,0,0-.334.753l1.728,8.459a37.618,37.618,0,0,0-7.324,9.739l-8.6.692a.709.709,0,0,0-.63.53l-2.58,10.03a.709.709,0,0,0,.3.768l7.2,4.756a37.6,37.6,0,0,0,1.716,12.064l-5.6,6.575a.709.709,0,0,0-.071.821l5.268,8.917a.71.71,0,0,0,.753.334l8.459-1.729a37.6,37.6,0,0,0,9.738,7.324l.692,8.6a.709.709,0,0,0,.53.63l10.03,2.58a.709.709,0,0,0,.768-.3l4.756-7.2a37.608,37.608,0,0,0,12.064-1.716l6.575,5.6a.709.709,0,0,0,.82.07l8.916-5.268a.709.709,0,0,0,.334-.753l-1.729-8.459a37.594,37.594,0,0,0,7.324-9.739l8.6-.692a.71.71,0,0,0,.63-.53l2.58-10.03a.709.709,0,0,0-.3-.768l-7.2-4.756a37.6,37.6,0,0,0-1.716-12.064l5.6-6.575a.709.709,0,0,0,.07-.82l-5.268-8.917a.709.709,0,0,0-.753-.334l-8.459,1.729a37.612,37.612,0,0,0-9.739-7.324l-.692-8.6a.71.71,0,0,0-.531-.63l-10.03-2.58a.709.709,0,0,0-.769.3l-4.756,7.2a37.608,37.608,0,0,0-12.064,1.716l-6.575-5.6a.71.71,0,0,0-.821-.07Z" transform="translate(-1144.168 -813.02)"/><g transform="translate(35.492 35.486)"><path class="c" d="M1317.166,995.872a9.859,9.859,0,1,1,8.674-5.14A9.8,9.8,0,0,1,1317.166,995.872Zm.028-18.394a8.546,8.546,0,1,0,4.072,1.045h0A8.488,8.488,0,0,0,1317.194,977.479Z" transform="translate(-1307.325 -976.15)"/></g><path class="c" d="M1260.766,955.837a25.66,25.66,0,0,1-18.038-43.9l.933.945a24.331,24.331,0,1,0,23.168-6.261h0a24.515,24.515,0,0,0-4.762-.737h-.01c-.118-.007-.235-.012-.353-.017l.052-1.327a25.863,25.863,0,0,1,5.4.794q.9.232,1.765.521a25.656,25.656,0,0,1-8.159,49.98Z" transform="translate(-1215.324 -884.632)"/></g></g><g transform="translate(450.198 297.523)"><g transform="translate(0 0)"><path class="a" d="M1734.681,614.055l-58.277-.324a3.059,3.059,0,0,0-2.64,4.633l.293.488a3.059,3.059,0,0,0,2.622,1.484h57.985a3.059,3.059,0,0,0,3.059-3.059v-.163A3.059,3.059,0,0,0,1734.681,614.055Z" transform="translate(-1673.323 -613.731)"/><path class="a" d="M1992.808,618.595v.095a3.059,3.059,0,0,0,3.059,3.059H2008.8a3.059,3.059,0,0,0,2.955-2.269h0a3.059,3.059,0,0,0-2.933-3.849l-12.937-.095A3.059,3.059,0,0,0,1992.808,618.595Z" transform="translate(-1923.31 -615.143)"/></g><g transform="translate(0 10.981)"><path class="a" d="M1720.663,664.534l-44.259-.325a3.059,3.059,0,0,0-2.64,4.634l.293.487a3.059,3.059,0,0,0,2.622,1.484h43.966a3.059,3.059,0,0,0,3.059-3.059v-.163A3.059,3.059,0,0,0,1720.663,664.534Z" transform="translate(-1673.323 -664.209)"/><path class="a" d="M1928.365,669.073v.095a3.059,3.059,0,0,0,3.059,3.059h12.937a3.059,3.059,0,0,0,2.956-2.269h0a3.059,3.059,0,0,0-2.933-3.849l-12.937-.095A3.059,3.059,0,0,0,1928.365,669.073Z" transform="translate(-1872.885 -665.621)"/></g></g><g transform="translate(170.752 355.029)"><path class="a" d="M450.073,878.408l-58.277-.325a3.059,3.059,0,0,0-2.64,4.633l.293.487a3.059,3.059,0,0,0,2.623,1.484h57.985a3.059,3.059,0,0,0,3.059-3.059v-.163A3.059,3.059,0,0,0,450.073,878.408Z" transform="translate(-388.715 -878.084)"/><path class="a" d="M708.2,882.948v.095a3.059,3.059,0,0,0,3.059,3.059H724.2a3.059,3.059,0,0,0,2.956-2.27h0a3.059,3.059,0,0,0-2.933-3.848l-12.937-.095A3.059,3.059,0,0,0,708.2,882.948Z" transform="translate(-638.701 -879.496)"/><g transform="translate(0 10.981)"><path class="a" d="M436.054,928.887l-44.259-.325a3.059,3.059,0,0,0-2.64,4.633l.293.487a3.059,3.059,0,0,0,2.623,1.484h43.966a3.059,3.059,0,0,0,3.059-3.059v-.163A3.059,3.059,0,0,0,436.054,928.887Z" transform="translate(-388.715 -928.563)"/><path class="a" d="M643.757,933.426v.095a3.059,3.059,0,0,0,3.059,3.059h12.937a3.059,3.059,0,0,0,2.955-2.269h0a3.059,3.059,0,0,0-2.933-3.849l-12.937-.095A3.059,3.059,0,0,0,643.757,933.426Z" transform="translate(-588.277 -929.974)"/></g></g><g transform="translate(244.321 334.931)"><g transform="translate(0 44.793)"><path class="ag" d="M728.161,1108.371a1.254,1.254,0,0,1-1.112-1.831l56.66-109.281a1.253,1.253,0,1,1,2.226,1.154l-56.66,109.281A1.25,1.25,0,0,1,728.161,1108.371Z" transform="translate(-726.908 -995.5)"/><path class="ah" d="M851.726,1105.389a1.254,1.254,0,0,1-1.149-1.754l48.43-111.276a1.254,1.254,0,0,1,2.3,1l-48.43,111.275A1.253,1.253,0,0,1,851.726,1105.389Z" transform="translate(-823.593 -991.607)"/><path class="ai" d="M963.325,1091.406H943.682a.783.783,0,0,1,0-1.567h19.644a.783.783,0,1,1,0,1.567Z" transform="translate(-895.913 -1068.47)"/><path class="aj" d="M939.195,1147.348H919.55a.783.783,0,0,1,0-1.567h19.644a.783.783,0,1,1,0,1.567Z" transform="translate(-877.031 -1112.243)"/><path class="ak" d="M902.871,1214.335H881.977a.783.783,0,1,1,0-1.567h20.894a.783.783,0,1,1,0,1.567Z" transform="translate(-847.631 -1164.658)"/><path class="al" d="M990.567,1037.144H971.825a.783.783,0,0,1,0-1.567h18.741a.783.783,0,1,1,0,1.567Z" transform="translate(-917.935 -1026.012)"/><path class="am" d="M864.673,1291.4h-22.7a.783.783,0,0,1,0-1.567h22.7a.783.783,0,0,1,0,1.567Z" transform="translate(-816.327 -1224.962)"/><path class="an" d="M834.222,1351.188H809.871a.783.783,0,1,1,0-1.567h24.351a.783.783,0,1,1,0,1.567Z" transform="translate(-791.21 -1271.741)"/></g><g transform="translate(25.69 104.497)"><path class="ao" d="M857.688,1270c-2.508-2.183-7.9-3.932-7.9-3.932l-3.242.071a8.125,8.125,0,0,0-1.353,3.844,8.687,8.687,0,0,0,3.852.786A31.545,31.545,0,0,0,857.688,1270Z" transform="translate(-845.155 -1266.068)"/><path class="ap" d="M857.536,1284.08a31.546,31.546,0,0,1-8.639.769,8.69,8.69,0,0,1-3.852-.786c-.013.09-.025.178-.035.259a.956.956,0,0,0,.672,1.031c2.961.908,9.474.615,12.014.458a.668.668,0,0,0,.479-1.089A5.729,5.729,0,0,0,857.536,1284.08Z" transform="translate(-845.003 -1280.149)"/></g><path class="aq" d="M852.636,1253.528v2.578a1.053,1.053,0,0,0,.831,1.029,4.107,4.107,0,0,0,1.816.018,1.006,1.006,0,0,0,.749-.862l.326-2.763Z" transform="translate(-825.286 -1151.759)"/><g transform="translate(40.331 83.381)"><path class="ar" d="M915.72,1181.828c-1.006-2.238-.718-3.245-2.709-3.022a2.69,2.69,0,0,0-.606.133,1.789,1.789,0,0,0,0,1.166,22.151,22.151,0,0,0,3.485,6.359,2.189,2.189,0,0,0,1.679.82l2.2.037A14.015,14.015,0,0,1,915.72,1181.828Z" transform="translate(-912.309 -1176.648)"/><path class="as" d="M920.255,1176.349c-1.685-1.186-2.314-6.031-2.314-6.031l-2.6-1.322-1.958,1.419a1.8,1.8,0,0,0-.632.871,2.7,2.7,0,0,1,.606-.133c1.991-.223,1.7.784,2.709,3.023a14.015,14.015,0,0,0,4.046,5.492l1.509.025a.81.81,0,0,0,.659-1.3A9.785,9.785,0,0,0,920.255,1176.349Z" transform="translate(-912.658 -1168.997)"/></g><path class="at" d="M925.82,1157.786l-1.568,2.439a.71.71,0,0,0,.157.942,2.33,2.33,0,0,0,2.44.379l2.519-1.726Z" transform="translate(-881.235 -1076.844)"/><path class="au" d="M855.687,1039.463s-.824,2.324-2.021,10.488-1.983,14.1-2.635,17.34a142.138,142.138,0,0,0-1.481,18.288,1.117,1.117,0,0,0,1.151,1.106l3.085-.1a1,1,0,0,0,.956-.831c.816-4.8,6.46-29.576,9.863-36.7,0,0,9.053,2.559,11.311,3.589,0,0-2.918,1.168-8.9,12.38a15.251,15.251,0,0,0,4.412,2.48s13.087-10.854,14.47-11.99,2.642-3.093-.886-6.658-14.356-9.188-14.356-9.188Z" transform="translate(-822.869 -984.26)"/><path class="av" d="M896.347,1066.6a.155.155,0,0,1-.067-.015l-3.229-1.244a4.055,4.055,0,0,1-2.3-3.62.157.157,0,0,1,.156-.158.149.149,0,0,1,.157.156,3.74,3.74,0,0,0,2.119,3.339l3.229,1.244a.157.157,0,0,1-.067.3Z" transform="translate(-855.112 -1001.554)"/><path class="aw" d="M965.813,924.712s3.991,15.779,9.4,22.123a7.567,7.567,0,0,1-3.638,2.151s-8.3-7.272-10.824-12.326S965.813,924.712,965.813,924.712Z" transform="translate(-909.476 -894.471)"/><path class="ax" d="M947.987,841.752l-4.84,10.278h7.638s.614-4.7,2.623-7.527Z" transform="translate(-896.108 -829.558)"/><path class="ay" d="M889.358,851.518s1.768-2.906,13.329-2.194c6.01.37,19.526-4.867,22.535-7.5a5.633,5.633,0,0,1,3.77,1.88s-12.484,13.175-27.039,14.859c0,0-11.046,22.764-10.968,26.458a18.179,18.179,0,0,1-15.452,1.25s-.272-6.327,3.2-15.068A98.118,98.118,0,0,1,889.358,851.518Z" transform="translate(-843.198 -829.613)"/><path class="az" d="M962.635,919.373a.157.157,0,0,1-.013-.313c.056,0,5.605-.456,6.471-.553a.157.157,0,1,1,.035.312c-.87.1-6.425.55-6.481.554Z" transform="translate(-911.234 -889.615)"/><g transform="translate(48.544)"><path class="ba" d="M972.771,805.055c.079.144,1.8,10.871,1.8,10.871l-6.146.85-3.137-9.926S971.444,802.645,972.771,805.055Z" transform="translate(-961.973 -800.26)"/><path class="bb" d="M955.466,793.973l1.242,5.354a.777.777,0,0,0,.074.2c.208.378,1.017,1.627,2.245.721a6.9,6.9,0,0,1,3.022-1.611.767.767,0,0,1,.807.645,33.174,33.174,0,0,1,.443,5.132.766.766,0,0,1-.711.751,24.748,24.748,0,0,1-5.761-.164.768.768,0,0,1-.593-.515c-.43-1.308-1.752-5.278-2.292-6.327-.506-.985-2-1.126-2.635-1.141a.755.755,0,0,1-.542-.247A1.99,1.99,0,0,1,951,793.58a.769.769,0,0,0,.105-1.1,1.994,1.994,0,0,1,.075-2.973,2.812,2.812,0,0,1,3.426-.425.768.768,0,0,0,.957-.237.608.608,0,0,1,.655-.221.756.756,0,0,0,.888-.681,2.293,2.293,0,0,1,2.026-2.18c2.7-.52,4.047,2.184,4,4.084s-3.01,2.3-4.69,1.981c-1.277-.24-2.376.929-2.829,1.5A.76.76,0,0,0,955.466,793.973Z" transform="translate(-950.067 -785.695)"/><path class="bc" d="M957.622,838.661s-.056-3.314-1.4-3.626-2.789.657-1.643,2.641C956.007,840.146,957.622,838.661,957.622,838.661Z" transform="translate(-953.274 -824.257)"/><path class="c" d="M999.887,793.96a.166.166,0,0,1-.12-.28,1.837,1.837,0,0,0,.419-1.274,3.486,3.486,0,0,0-1.429-2.331.166.166,0,1,1,.216-.251,3.782,3.782,0,0,1,1.545,2.574,2.135,2.135,0,0,1-.512,1.512A.165.165,0,0,1,999.887,793.96Z" transform="translate(-988.12 -788.893)"/></g><path class="bd" d="M1103.969,815.965s1.9-5.228,2.267-5.029.59,1.343.59,1.343,4.5-1.363,4.833-1.954,2.229-1.91,2.24-1.454-1.134,4.33-2.609,5.51-3.711,3.3-3.711,3.3Z" transform="translate(-1021.946 -803.755)"/><path class="be" d="M1012.357,1028.562s3.4-2.574,4.948-2.091a6.411,6.411,0,0,1,2.689,1.933h-3.42s-.815,1.567,0,1.567h1.207S1014.59,1033.316,1012.357,1028.562Z" transform="translate(-950.262 -974.047)"/></g><g transform="translate(195.531 370.915)"><path class="bf" d="M617.4,1468.134s-.415,2.347-.618,4.67a1.6,1.6,0,0,0,1.531,1.734c3.094.129,9.711.379,12.085.273a.521.521,0,0,0,.458-.713h0a1.166,1.166,0,0,0-.6-.628l-10.93-5.024Z" transform="translate(-591.942 -1355.665)"/><path class="bg" d="M618.081,1460.236l.333,2.807s1.915.891,3.223-.112l-.793-3.128Z" transform="translate(-592.965 -1349.146)"/><path class="bh" d="M588.006,1219.2c-.144.733-.772,36.58,3.06,52.644a.545.545,0,0,1-.32.634,9.493,9.493,0,0,1-3.121.635.939.939,0,0,1-.931-.674c-1.1-3.727-6.344-22.4-7.028-40.24-.765-19.933,0-.679,0-.679l.449-12.322Z" transform="translate(-562.64 -1160.877)"/><path class="bi" d="M557.1,1473.762a16.881,16.881,0,0,0-1.3,4.333.976.976,0,0,0,.859,1.169c1.021.1,2.594.23,3.854.221a.973.973,0,0,0,.964-1.086,8.209,8.209,0,0,0-1.917-4.5Z" transform="translate(-544.216 -1360.068)"/><path class="bj" d="M559.176,1456.572l.778,4.245a2.745,2.745,0,0,0,2.291.157l-.371-4.567Z" transform="translate(-546.874 -1346.489)"/><path class="bk" d="M545.173,1217.122c-3.134,18.913.68,46.745,1.966,52.193a.85.85,0,0,0,.686.645,5.7,5.7,0,0,0,2.451-.1.778.778,0,0,0,.56-.717c.173-4.4-.138-31.441,2.782-42.126a2.427,2.427,0,0,1,.936-1.339l5.668-4.029.434-6.513Z" transform="translate(-534.973 -1157.704)"/><g transform="translate(9.03 9.036)"><path class="bl" d="M565.272,1054a88.29,88.29,0,0,0-19.754,2.466c-2.8,16.334-.489,35.175-.489,35.175,7.271,1.907,15.473-1.166,15.473-1.166,1.208-6.827,6.847-26.042,6.847-26.042a30.947,30.947,0,0,0,11.482-3.644,20.135,20.135,0,0,1-3.98-8.325A31.523,31.523,0,0,1,565.272,1054Z" transform="translate(-544.133 -1039.45)"/><path class="bl" d="M703.5,993.365a1.8,1.8,0,0,0-2.09-.587c-1.382,5.838-8.629,10.571-16.074,12.885a20.133,20.133,0,0,0,3.98,8.325C701.672,1007.041,703.5,993.365,703.5,993.365Z" transform="translate(-654.62 -992.654)"/></g><g transform="translate(55.82)"><path class="bm" d="M761.093,961.145c.1.307-1.021.774-1.68-.481-.023-.6-.389-3.179-.029-3.669a48.005,48.005,0,0,1,5.626-5.882.883.883,0,0,1,.11,1.227l-1.8,1.876a8.71,8.71,0,0,1,1.051,2.078,2.523,2.523,0,0,1-.252,1.857c-.316.57-.747,1.31-1.155,1.889A2.492,2.492,0,0,1,761.093,961.145Z" transform="translate(-759.227 -951.113)"/><path class="bn" d="M766.669,970.972l-1.641,1.391-.515,1.385,1.463,1.623a18.867,18.867,0,0,1,.858-3.343C767.2,971.434,767.009,971.146,766.669,970.972Z" transform="translate(-763.363 -966.652)"/></g><path class="bl" d="M517.359,1079.947l-3.6-9.094s-8.772,5.96-10.215,13.518a20.759,20.759,0,0,1,7.626,2.044C511.817,1082.846,517.359,1079.947,517.359,1079.947Z" transform="translate(-503.342 -1044.806)"/><path class="bl" d="M524.306,1137.126s-9.849,5.566-13.172.813a3.735,3.735,0,0,1-.685-2.9,20.759,20.759,0,0,0-7.626-2.044,10.431,10.431,0,0,0,1.134,7.15c5.821,10.649,21.653-.588,21.653-.588Z" transform="translate(-502.623 -1093.428)"/><g transform="translate(20.478 28.585)"><path class="bo" d="M596.783,1111.234l5.375-18.772a.548.548,0,0,1,.463-.394c.974-.114,3.8-.432,7.054-.708a80.036,80.036,0,0,1,11.206-.372.549.549,0,0,1,.449.79c-1.549,3.133-7.919,15.879-11.11,20.054a.552.552,0,0,1-.443.218l-12.472-.116A.55.55,0,0,1,596.783,1111.234Z" transform="translate(-596.761 -1089.079)"/><path class="bp" d="M656.989,1083.173l3.9-.649a.279.279,0,0,1,.311.364l-.386,1.169a.28.28,0,0,1-.229.19l-3.75.5a.28.28,0,0,1-.309-.341l.239-1.021A.28.28,0,0,1,656.989,1083.173Z" transform="translate(-643.518 -1082.52)"/><path class="bq" d="M645.25,1090.673l.321-1.672a.387.387,0,0,1,.341-.312l7.871-.8a.387.387,0,0,1,.415.475l-.5,2.084a.387.387,0,0,1-.357.3l-7.692.387A.387.387,0,0,1,645.25,1090.673Z" transform="translate(-634.696 -1086.721)"/><path class="br" d="M600.965,1140.5s-.749-3.079-.447-4.172.887-2.5,2.838-2.185a28.539,28.539,0,0,1,4.252,1.134,1.117,1.117,0,0,1-1.6.964l.919.711s-.131,1.139-1.384.531l.855.943a1,1,0,0,1-1.459.336C604.02,1138.157,603.578,1140.866,600.965,1140.5Z" transform="translate(-599.645 -1122.875)"/></g><path class="bs" d="M586.768,1024.468l-2.988,8.642a.311.311,0,0,0,.142.375,7.025,7.025,0,0,0,7.286-.49,1.467,1.467,0,0,0,.675-1.047l.968-7.479Z" transform="translate(-566.112 -1008.511)"/><g transform="translate(14.985 3.463)"><path class="bt" d="M599.918,987.679s3.282,6.177,2.861,8.672-4.487,2.316-8.039.29l-2.481-6.67Z" transform="translate(-587.745 -983.188)"/><path class="bu" d="M578.66,977.211a.255.255,0,0,0,.111-.373,6.64,6.64,0,0,1-.913-1.938s-.59-.378,1.5-.878,5.21-1.278,5.866-3.058c.639-1.736-1.04-6.1-3.719-2.622a.254.254,0,0,1-.4,0,2.625,2.625,0,0,0-3.2-1.039,2.408,2.408,0,0,0-1.649,2.327.253.253,0,0,1-.3.259,2.936,2.936,0,0,0-3.428,1.6c-.7,1.538-.245,2.408.169,2.834a.254.254,0,0,1-.109.421,1.528,1.528,0,0,0-1.078,1.743c.089,1.615,1.894,1.472,2.408,1.4a.256.256,0,0,1,.226.08c.44.488,2.426,2.559,4.575,2.808a.257.257,0,0,0,.269-.339l-.93-2.7a.256.256,0,0,1,.138-.317Z" transform="translate(-571.507 -967.033)"/><path class="bv" d="M597.055,1012.727s-2.336-1.6-2.507-.253,2.1,1.955,3.231,1.452Z" transform="translate(-589.529 -1002.166)"/></g></g><g transform="translate(232.447 212.259)"><g transform="translate(191.129 0)"><path class="n" d="M1568.74,385.477a.309.309,0,0,1,0-.619c.515-.007,1.03-.026,1.531-.057a.309.309,0,1,1,.038.617c-.511.032-1.036.051-1.561.058Zm-1.545-.015h-.01c-.51-.017-1.034-.044-1.558-.083a.309.309,0,0,1-.286-.331.3.3,0,0,1,.331-.286c.515.038,1.03.065,1.532.082a.309.309,0,0,1-.01.618Zm4.63-.18a.309.309,0,0,1-.035-.617c.511-.06,1.021-.134,1.512-.222a.309.309,0,1,1,.108.609c-.5.089-1.024.166-1.548.227Zm-7.716-.047-.035,0c-.509-.057-1.029-.125-1.545-.2a.309.309,0,1,1,.091-.612c.509.075,1.021.142,1.523.2a.309.309,0,0,1-.034.617Zm-3.061-.454a.33.33,0,0,1-.056-.005c-.5-.092-1.018-.195-1.527-.3a.309.309,0,0,1,.13-.6c.5.108,1.01.209,1.508.3a.309.309,0,0,1-.055.614Zm13.821-.043a.309.309,0,0,1-.073-.61c.5-.122.992-.262,1.467-.415a.309.309,0,1,1,.19.589c-.489.157-1,.3-1.509.427A.3.3,0,0,1,1574.869,384.739Zm-16.846-.608a.3.3,0,0,1-.075-.009c-.5-.123-1.005-.256-1.506-.4a.309.309,0,0,1,.166-.6c.495.138,1,.27,1.488.391a.309.309,0,0,1-.074.61Zm19.786-.341a.309.309,0,0,1-.117-.6c.472-.193.937-.405,1.383-.632a.309.309,0,1,1,.28.552c-.46.234-.941.453-1.428.653A.315.315,0,0,1,1577.81,383.79Zm-22.769-.49a.314.314,0,0,1-.092-.014c-.5-.157-1-.32-1.481-.485a.309.309,0,0,1,.2-.585c.472.163.964.324,1.462.479a.309.309,0,0,1-.092.6Zm25.521-.91a.309.309,0,0,1-.164-.572c.428-.266.85-.555,1.252-.857a.309.309,0,1,1,.372.494c-.418.314-.854.613-1.3.888A.308.308,0,0,1,1580.562,382.39Zm-28.448-.106a.311.311,0,0,1-.112-.021c-.233-.091-.356-.143-.356-.143l-.7-.3.711-.276.112-.04c.168-.059.518-.181.986-.371a.309.309,0,0,1,.234.573c-.215.087-.4.161-.565.22a.305.305,0,0,1-.018.159A.31.31,0,0,1,1552.114,382.284Zm2.167-1.191a.309.309,0,0,1-.138-.586c.46-.229.91-.475,1.337-.731a.309.309,0,0,1,.319.53c-.441.265-.9.519-1.38.755A.306.306,0,0,1,1554.281,381.094Zm28.747-.56a.309.309,0,0,1-.208-.539c.373-.337.736-.7,1.079-1.067a.309.309,0,0,1,.454.42c-.355.384-.731.756-1.118,1.105A.308.308,0,0,1,1583.028,380.534Zm-26.1-1.038a.309.309,0,0,1-.183-.559,14.1,14.1,0,0,0,1.173-.956.309.309,0,0,1,.417.457,14.829,14.829,0,0,1-1.225,1A.309.309,0,0,1,1556.929,379.5Zm28.2-1.226a.309.309,0,0,1-.244-.5c.307-.394.6-.811.882-1.237a.309.309,0,0,1,.518.338c-.288.441-.595.871-.911,1.278A.309.309,0,0,1,1585.126,378.27Zm-25.922-.862a.309.309,0,0,1-.236-.509,9.882,9.882,0,0,0,.881-1.211.309.309,0,0,1,.527.324,10.537,10.537,0,0,1-.936,1.288A.309.309,0,0,1,1559.2,377.408Zm27.613-1.72a.309.309,0,0,1-.271-.459c.24-.436.471-.894.686-1.36a.309.309,0,0,1,.562.259c-.221.479-.458.95-.705,1.4A.309.309,0,0,1,1586.816,375.688Zm-26.012-.909a.31.31,0,0,1-.287-.423q.032-.08.062-.161c.17-.457.354-.889.547-1.285a.309.309,0,1,1,.556.271c-.184.377-.36.791-.523,1.229-.021.058-.044.116-.067.173A.31.31,0,0,1,1560.8,374.779Zm27.309-1.894a.31.31,0,0,1-.288-.421c.179-.466.35-.95.506-1.44a.309.309,0,1,1,.589.188c-.161.5-.335,1-.519,1.474A.309.309,0,0,1,1588.113,372.885Zm-25.933-.864a.309.309,0,0,1-.253-.487,7.027,7.027,0,0,1,1.062-1.213.309.309,0,0,1,.412.461,6.421,6.421,0,0,0-.968,1.107A.309.309,0,0,1,1562.18,372.021Zm2.306-2a.309.309,0,0,1-.124-.593,4.736,4.736,0,0,1,.923-.293c-.3-.063-.645-.132-1.04-.206a.309.309,0,0,1,.114-.608c.634.119,1.15.225,1.534.317a2.4,2.4,0,0,0,.4.681.309.309,0,0,1-.281.335,4.361,4.361,0,0,0-1.4.341A.305.305,0,0,1,1564.486,370.023Zm24.571-.079a.309.309,0,0,1-.3-.388q.079-.3.154-.614l-.4-.4a.309.309,0,1,1,.441-.434l.635.646-.039.166q-.1.4-.2.795A.309.309,0,0,1,1589.057,369.944Zm-26.282-1.278a.3.3,0,0,1-.052,0c-.616-.1-1.169-.192-1.528-.249a.309.309,0,0,1,.1-.611l.3.047a.31.31,0,0,1,.083-.42,5.931,5.931,0,0,0,1.033-1.034.309.309,0,1,1,.472.4,6.54,6.54,0,0,1-1.131,1.127l.782.13a.309.309,0,0,1-.051.614Zm24.877-1.136a.308.308,0,0,1-.22-.092l-1.085-1.1a.309.309,0,0,1,.441-.434l1.085,1.1a.309.309,0,0,1-.221.526Zm-23.71-1.8a.309.309,0,0,1-.232-.514c.367-.415.723-.786,1.086-1.134a.309.309,0,0,1,.428.447c-.351.337-.7.7-1.051,1.1A.309.309,0,0,1,1563.942,365.727Zm21.54-.4a.309.309,0,0,1-.22-.092l-1.085-1.1a.309.309,0,0,1,.441-.434l1.085,1.1a.309.309,0,0,1-.221.526Zm-19.308-1.732a.309.309,0,0,1-.193-.551c.4-.319.827-.631,1.269-.926a.309.309,0,1,1,.344.514c-.428.286-.84.587-1.227.9A.308.308,0,0,1,1566.174,363.594Zm17.139-.473a.308.308,0,0,1-.221-.092l-1.085-1.1a.307.307,0,0,1-.082-.155.312.312,0,0,1-.168-.1,7.09,7.09,0,0,0-1.248-.641.309.309,0,0,1,.24-.57c.144.061,1.408.6,1.529.891a.288.288,0,0,1,.017.056.31.31,0,0,1,.154.085l1.085,1.1a.309.309,0,0,1-.22.526Zm-14.574-1.247a.309.309,0,0,1-.152-.579c.3-.171.617-.339.936-.5q.23-.116.458-.222a.309.309,0,0,1,.259.562q-.218.1-.437.212c-.311.157-.618.322-.912.488A.309.309,0,0,1,1568.739,361.874Zm2.811-1.274a.309.309,0,0,1-.095-.6,12.814,12.814,0,0,1,1.535-.392.309.309,0,1,1,.115.608,12.216,12.216,0,0,0-1.46.373A.311.311,0,0,1,1571.55,360.6Zm7.62-.059a.31.31,0,0,1-.086-.012,13.688,13.688,0,0,0-1.474-.339.309.309,0,0,1,.105-.61,14.22,14.22,0,0,1,1.54.355.309.309,0,0,1-.086.607Zm-4.589-.517a.309.309,0,0,1-.019-.618,13.194,13.194,0,0,1,1.583-.006.309.309,0,1,1-.034.618,12.7,12.7,0,0,0-1.509.006Z" transform="translate(-1550.943 -329.445)"/><path class="bw" d="M1636.983,379.6s-7.542-3.715-10.865,1.527-5.377,11.356-8.224,12.009c0,0,15.858,4.331,20.925-11.206Z" transform="translate(-1603.329 -344.269)"/><path class="bx" d="M1642.8,290.11s-5.659-6.009-8.361-5.287c-2.571.687-16.581,13.052-17.943,14.258a.154.154,0,0,0-.019.21h0a2.114,2.114,0,0,0,1.721.842c3.266-.05,13.015-.283,15.94-1.3C1637.669,297.606,1642.8,290.11,1642.8,290.11Z" transform="translate(-1602.194 -271.06)"/><path class="by" d="M1643.2,298.636a.155.155,0,0,1-.1-.272c.078-.067,7.868-6.706,11.332-9.433a1.948,1.948,0,0,1,2.116-.192,29.456,29.456,0,0,1,4.992,3.306.155.155,0,0,1-.2.236,29.151,29.151,0,0,0-4.937-3.269,1.638,1.638,0,0,0-1.78.162c-3.459,2.723-11.245,9.358-11.323,9.425A.153.153,0,0,1,1643.2,298.636Z" transform="translate(-1623.011 -273.994)"/><path class="bz" d="M1731.4,379.712s4.224,7.09,2.788,9.491c-1.366,2.283-17.1,12.36-18.636,13.339a.154.154,0,0,1-.207-.039h0a2.115,2.115,0,0,1-.337-1.887c.945-3.126,3.846-12.437,5.626-14.971C1722.781,382.585,1731.4,379.712,1731.4,379.712Z" transform="translate(-1679.245 -345.355)"/><path class="by" d="M1740.33,405.832a.155.155,0,0,1-.086-.284c.086-.057,8.6-5.721,12.172-8.3a1.638,1.638,0,0,0,.644-1.667,29.115,29.115,0,0,0-1.787-5.645.155.155,0,0,1,.282-.127,28.894,28.894,0,0,1,1.808,5.708,1.948,1.948,0,0,1-.766,1.982c-3.573,2.582-12.1,8.25-12.182,8.307A.154.154,0,0,1,1740.33,405.832Z" transform="translate(-1699.011 -353.184)"/><path class="ca" d="M1718.216,232.985a42.636,42.636,0,0,0-11.766,6.223,121.377,121.377,0,0,0-21.642,20.575,1.618,1.618,0,0,0-.213,1.639,28.53,28.53,0,0,0,8.115,10.933,2.352,2.352,0,0,0,2.419.353,122.559,122.559,0,0,0,25.293-14.98,42.631,42.631,0,0,0,9.162-9.53C1726.715,240.883,1721.4,235.731,1718.216,232.985Z" transform="translate(-1655.418 -230.546)"/><path class="cb" d="M1850.992,239.422a44.239,44.239,0,0,0,7.154-16.572.8.8,0,0,0-.709-.939,44.234,44.234,0,0,0-17.813,2.3C1842.8,226.956,1848.123,232.109,1850.992,239.422Z" transform="translate(-1776.826 -221.771)"/><g transform="translate(48.466 6.859)"><ellipse class="a" cx="7.16" cy="7.685" rx="7.16" ry="7.685" transform="matrix(0.798, -0.602, 0.602, 0.798, 0, 8.624)"/><path class="cc" d="M1805.233,284.956a6.139,6.139,0,1,1,.867-8.324A5.925,5.925,0,0,1,1805.233,284.956Z" transform="translate(-1790.911 -269.57)"/><path class="cd" d="M1820.851,284.561a.155.155,0,0,1-.147-.1,4.624,4.624,0,0,0-.688-1.293,4.443,4.443,0,0,0-5-1.57.155.155,0,0,1-.106-.291,4.753,4.753,0,0,1,5.355,1.675,4.946,4.946,0,0,1,.734,1.379.154.154,0,0,1-.146.2Z" transform="translate(-1805.874 -275.004)"/></g><g transform="translate(42.464 21.018)"><path class="a" d="M1754.069,327.4a5.089,5.089,0,1,1,.718-6.9A4.913,4.913,0,0,1,1754.069,327.4Z" transform="translate(-1746.152 -318.391)"/><path class="ce" d="M1757.878,330.35a4.055,4.055,0,1,1,.573-5.5A3.915,3.915,0,0,1,1757.878,330.35Z" transform="translate(-1750.391 -322.133)"/><path class="cd" d="M1768.006,329.954a.154.154,0,0,1-.146-.1,3,3,0,0,0-.447-.839,2.882,2.882,0,0,0-3.245-1.02.155.155,0,0,1-.106-.291,3.194,3.194,0,0,1,3.6,1.124,3.314,3.314,0,0,1,.493.926.155.155,0,0,1-.1.2A.148.148,0,0,1,1768.006,329.954Z" transform="translate(-1760.087 -325.535)"/></g></g><g transform="translate(0 37.199)"><path class="n" d="M1526.172,873.192l-.165-.905,0-.008a.311.311,0,0,1,.612-.111h0l.164.922a.309.309,0,0,1-.608.108Z" transform="translate(-1340.298 -767.683)"/><path class="n" d="M1522.9,859.359l-.245-.886,0-.008a.317.317,0,0,1,.611-.169h0l.246.9a.315.315,0,1,1-.608.166Z" transform="translate(-1337.668 -756.848)"/><path class="n" d="M1518.414,845.873l-.322-.861,0-.008a.323.323,0,0,1,.605-.226h0l.324.878a.321.321,0,1,1-.6.223Z" transform="translate(-1334.092 -746.287)"/><path class="n" d="M1512.787,832.823l-.394-.831,0-.008a.329.329,0,1,1,.595-.282h0l.4.847a.327.327,0,1,1-.593.278Z" transform="translate(-1329.623 -736.074)"/><path class="n" d="M1506.1,820.282l-.46-.8,0-.007a.335.335,0,0,1,.581-.336h0l.465.812a.333.333,0,0,1-.579.331Z" transform="translate(-1324.328 -726.263)"/><path class="n" d="M1498.444,808.306l-.521-.759,0-.006a.341.341,0,0,1,.563-.386h0l.526.773a.339.339,0,0,1-.561.382Z" transform="translate(-1318.278 -716.897)"/><path class="n" d="M1489.909,796.935l-.575-.718,0-.006a.348.348,0,0,1,.542-.435h0l.582.732a.346.346,0,0,1-.541.43Z" transform="translate(-1311.544 -708.008)"/><path class="n" d="M1480.584,786.2l-.624-.677-.005-.005a.354.354,0,0,1,.52-.48h0l.631.69a.352.352,0,1,1-.519.475Z" transform="translate(-1304.196 -699.617)"/><path class="n" d="M1470.554,776.115l-.668-.634-.005-.005a.36.36,0,0,1,.5-.522h0l.676.646a.358.358,0,0,1-.495.517Z" transform="translate(-1296.298 -691.74)"/><path class="n" d="M1459.891,766.7l-.707-.59-.005,0a.366.366,0,1,1,.469-.562h0l.715.6a.364.364,0,1,1-.469.557Z" transform="translate(-1287.909 -684.385)"/><path class="n" d="M1448.667,757.957l-.742-.546-.005,0a.372.372,0,1,1,.441-.6h0l.751.557a.37.37,0,0,1-.442.594Z" transform="translate(-1279.084 -677.562)"/><path class="n" d="M1436.94,749.9l-.774-.5-.005,0a.378.378,0,1,1,.412-.634h0l.783.513a.376.376,0,1,1-.412.629Z" transform="translate(-1269.866 -671.273)"/><path class="n" d="M1424.766,742.536l-.8-.456-.006,0a.384.384,0,0,1,.381-.667h0l.81.466a.382.382,0,1,1-.381.663Z" transform="translate(-1260.303 -665.53)"/><path class="n" d="M1412.195,735.875l-.825-.41-.006,0a.39.39,0,0,1,.348-.7h0l.835.419a.389.389,0,1,1-.349.694Z" transform="translate(-1250.429 -660.337)"/><path class="n" d="M1399.271,729.931l-.846-.363-.007,0a.4.4,0,0,1,.313-.728h0l.857.372a.395.395,0,1,1-.314.724Z" transform="translate(-1240.281 -655.706)"/><path class="n" d="M1386.035,724.72l-.866-.315-.006,0a.4.4,0,0,1,.276-.757h0l.877.323a.4.4,0,1,1-.277.752Z" transform="translate(-1229.89 -651.651)"/><path class="n" d="M1372.526,720.264l-.882-.266-.007,0a.409.409,0,1,1,.235-.783h0l.894.273a.407.407,0,1,1-.237.778Z" transform="translate(-1219.286 -648.189)"/><path class="n" d="M1358.8,716.583l-.895-.217h-.006a.415.415,0,1,1,.2-.806h0l.905.223a.413.413,0,1,1-.2.8Z" transform="translate(-1208.514 -645.333)"/><path class="n" d="M1344.894,713.579l-.905-.175h-.006a.421.421,0,1,1,.16-.826h0l.916.181a.419.419,0,0,1-.162.822Z" transform="translate(-1197.608 -643.002)"/><path class="n" d="M1330.869,711.209l-.913-.134h-.005a.427.427,0,1,1,.124-.845h0l.923.14a.425.425,0,0,1-.127.841Z" transform="translate(-1186.61 -641.168)"/><path class="n" d="M1316.754,709.448l-.917-.1h-.005a.433.433,0,0,1,.09-.861h0l.928.1a.431.431,0,0,1-.093.857Z" transform="translate(-1175.544 -639.81)"/><path class="n" d="M1302.58,708.266l-.921-.059h-.005a.439.439,0,1,1,.056-.877h0l.931.063a.437.437,0,0,1-.059.873Z" transform="translate(-1164.432 -638.903)"/><path class="n" d="M1288.37,707.627l-.923-.024h0a.445.445,0,0,1,.024-.89h0l.932.028a.444.444,0,1,1-.027.887Z" transform="translate(-1153.295 -638.42)"/><path class="n" d="M1274.146,707.485l-.923.008h0a.451.451,0,1,1-.008-.9h0l.933,0a.45.45,0,1,1,0,.9Z" transform="translate(-1142.148 -638.321)"/><path class="n" d="M1259.926,707.722l-.923.037h0a.458.458,0,0,1-.037-.914h0l.932-.034a.456.456,0,0,1,.034.911Z" transform="translate(-1131.005 -638.497)"/><path class="n" d="M1245.722,708.405l-.922.065h0a.464.464,0,0,1-.065-.925h0l.93-.062a.462.462,0,1,1,.061.922Z" transform="translate(-1119.877 -639.023)"/><path class="n" d="M1231.56,709.5l-.92.089h0a.466.466,0,1,1-.09-.927h0l.927-.088a.465.465,0,0,1,.088.926Z" transform="translate(-1108.786 -639.878)"/><path class="n" d="M1217.435,710.981l-.917.112h0a.468.468,0,0,1-.113-.929h0l.924-.111a.467.467,0,0,1,.112.928Z" transform="translate(-1097.725 -641.031)"/><path class="n" d="M1203.345,712.8l-.916.133h0a.47.47,0,1,1-.135-.931h0l.922-.132a.469.469,0,1,1,.133.929Z" transform="translate(-1086.691 -642.451)"/><path class="n" d="M1189.3,714.924l-.913.151h0a.472.472,0,1,1-.154-.931h0l.919-.151a.472.472,0,0,1,.153.931Z" transform="translate(-1075.693 -644.112)"/><path class="n" d="M1175.3,717.325l-.91.168h0a.474.474,0,1,1-.172-.933h0l.915-.168a.474.474,0,0,1,.171.932Z" transform="translate(-1064.731 -645.989)"/><path class="n" d="M1161.338,719.971l-.908.183h0a.476.476,0,1,1-.188-.934h0l.912-.183a.476.476,0,1,1,.186.933Z" transform="translate(-1053.803 -648.057)"/><path class="n" d="M1147.42,722.833l-.905.2h0a.479.479,0,1,1-.2-.935h0l.909-.2a.478.478,0,1,1,.2.934Z" transform="translate(-1042.908 -650.294)"/><path class="n" d="M1133.538,725.882l-.9.207h0a.481.481,0,0,1-.214-.937h0l.907-.206a.48.48,0,1,1,.213.936Z" transform="translate(-1032.041 -652.677)"/><path class="n" d="M1119.688,729.09l-.9.216a.483.483,0,0,1-.227-.939h0l.9-.215a.482.482,0,1,1,.222.938Z" transform="translate(-1021.2 -655.185)"/><path class="n" d="M1105.861,732.416l-.9.222a.485.485,0,0,1-.233-.941h0l.9-.221a.484.484,0,1,1,.23.941Z" transform="translate(-1010.377 -657.785)"/><path class="n" d="M1092.054,735.823l-.9.226a.487.487,0,1,1-.238-.945h0l.9-.225a.486.486,0,1,1,.235.944Z" transform="translate(-999.571 -660.449)"/><path class="n" d="M1078.258,739.279l-.9.228a.489.489,0,1,1-.24-.948h0l.9-.227a.488.488,0,0,1,.239.947Z" transform="translate(-988.774 -663.15)"/><path class="n" d="M1064.463,742.752l-.9.227a.491.491,0,0,1-.24-.952h0l.9-.226a.491.491,0,0,1,.24.951Z" transform="translate(-977.978 -665.864)"/><path class="n" d="M1050.661,746.21l-.9.225a.493.493,0,1,1-.239-.957h0l.9-.224a.493.493,0,0,1,.239.956Z" transform="translate(-967.176 -668.566)"/><path class="n" d="M1036.844,749.622l-.9.221a.5.5,0,0,1-.236-.962h0l.9-.219a.495.495,0,1,1,.235.961Z" transform="translate(-956.364 -671.233)"/><path class="n" d="M1023.005,752.957l-.9.214a.5.5,0,0,1-.23-.968h0l.9-.212a.5.5,0,1,1,.23.967Z" transform="translate(-945.534 -673.837)"/><path class="n" d="M1009.137,756.181l-.907.206a.5.5,0,1,1-.221-.974h0l.9-.2h0a.5.5,0,0,1,.22.973Z" transform="translate(-934.683 -676.356)"/><path class="cf" d="M995.234,759.261l-.909.2a.5.5,0,1,1-.211-.981h0l.906-.193h0a.5.5,0,0,1,.21.98Z" transform="translate(-923.805 -678.762)"/><path class="n" d="M981.287,762.165l-.913.183a.5.5,0,0,1-.2-.988h0l.909-.181h0a.5.5,0,0,1,.2.987Z" transform="translate(-912.891 -681.03)"/><path class="n" d="M967.3,764.861l-.916.167a.506.506,0,1,1-.182-1h0l.911-.165h0a.505.505,0,0,1,.181.994Z" transform="translate(-901.947 -683.135)"/><path class="n" d="M953.262,767.312l-.919.15a.508.508,0,0,1-.164-1h0l.913-.147h0a.507.507,0,0,1,.163,1Z" transform="translate(-890.969 -685.048)"/><path class="n" d="M939.188,769.483l-.922.13a.51.51,0,1,1-.143-1.01h0l.915-.128h0a.509.509,0,0,1,.142,1.009Z" transform="translate(-879.96 -686.743)"/><path class="n" d="M925.065,771.342l-.924.108a.512.512,0,0,1-.119-1.018h0l.917-.106h0a.512.512,0,0,1,.118,1.016Z" transform="translate(-868.915 -688.193)"/><path class="n" d="M910.9,772.853l-.928.084a.514.514,0,1,1-.093-1.024h0l.919-.082h0a.514.514,0,0,1,.092,1.023Z" transform="translate(-857.838 -689.371)"/><path class="n" d="M896.7,773.983l-.93.058a.516.516,0,1,1-.064-1.031h.005l.921-.056h0a.516.516,0,0,1,.063,1.03Z" transform="translate(-846.737 -690.251)"/><path class="n" d="M882.471,774.694l-.934.026a.518.518,0,1,1-.029-1.037h.007l.922-.025h.006a.518.518,0,0,1,.029,1.035Z" transform="translate(-835.61 -690.803)"/><path class="n" d="M868.224,774.852l-.934-.01a.521.521,0,0,1,.011-1.041h.007l.922.011h.006a.52.52,0,0,1-.012,1.04Z" transform="translate(-824.476 -690.915)"/><path class="n" d="M853.984,774.345l-.933-.049a.523.523,0,1,1,.054-1.044h.007l.92.049h.007a.522.522,0,0,1-.055,1.043Z" transform="translate(-813.349 -690.485)"/><path class="n" d="M839.777,773.221l-.931-.091a.525.525,0,1,1,.1-1.045h.008l.916.09h.007a.524.524,0,0,1-.1,1.044Z" transform="translate(-802.252 -689.571)"/><path class="n" d="M825.636,771.43l-.926-.136a.527.527,0,1,1,.153-1.043h.009l.91.134h.008a.526.526,0,0,1-.153,1.041Z" transform="translate(-791.209 -688.133)"/><path class="n" d="M811.6,768.917l-.918-.185a.529.529,0,1,1,.209-1.037h0l.009,0,.9.182.009,0a.528.528,0,0,1-.209,1.036Z" transform="translate(-780.254 -686.129)"/><path class="n" d="M797.729,765.622l-.907-.238a.531.531,0,0,1,.27-1.027h0l.009,0,.888.234.009,0a.53.53,0,0,1-.27,1.026Z" transform="translate(-769.43 -683.511)"/><path class="n" d="M784.081,761.479l-.891-.3a.533.533,0,1,1,.336-1.012h0l.01,0,.87.29.01,0a.533.533,0,0,1-.336,1.011Z" transform="translate(-758.787 -680.228)"/><path class="n" d="M770.736,756.423l-.87-.358a.535.535,0,0,1,.408-.99h0l.011,0,.848.351.011,0a.535.535,0,0,1-.408.989Z" transform="translate(-748.388 -676.23)"/><path class="n" d="M757.8,750.4l-.84-.424a.537.537,0,1,1,.484-.96h0l.012.006.816.413.011.006a.537.537,0,0,1-.484.958Z" transform="translate(-738.318 -671.475)"/><path class="n" d="M745.384,743.359l-.8-.492a.54.54,0,1,1,.564-.92h0l.012.007.779.479.012.007a.539.539,0,0,1-.564.919Z" transform="translate(-728.662 -665.927)"/><path class="n" d="M733.616,735.279l-.757-.562a.542.542,0,1,1,.645-.87h0l.012.009.733.545.012.009a.541.541,0,0,1-.645.869Z" transform="translate(-719.52 -659.569)"/><path class="n" d="M722.629,726.168l-.7-.628a.544.544,0,1,1,.725-.81h0l.011.01.678.609.011.01a.543.543,0,0,1-.725.809Z" transform="translate(-710.995 -652.409)"/><path class="n" d="M712.557,716.04l-.638-.7a.546.546,0,0,1,.805-.737h0l.011.012.614.673.011.012a.545.545,0,0,1-.8.736Z" transform="translate(-703.194 -644.458)"/><path class="n" d="M703.551,704.961l-.565-.756a.548.548,0,0,1,.878-.656h0l.01.013.545.731.01.013a.547.547,0,0,1-.877.655Z" transform="translate(-696.231 -635.772)"/><path class="n" d="M695.668,693.058l-.49-.806a.55.55,0,1,1,.94-.571h0l.008.013.472.78.008.013a.549.549,0,0,1-.94.57Z" transform="translate(-690.144 -626.451)"/><path class="n" d="M688.938,680.472l-.413-.848a.552.552,0,1,1,.993-.484h0l.006.013.4.821.006.014a.551.551,0,0,1-.992.482Z" transform="translate(-684.957 -616.603)"/><path class="n" d="M683.367,667.332l-.336-.88a.554.554,0,1,1,1.035-.4h0l0,.014.325.854.005.013a.554.554,0,0,1-1.035.394Z" transform="translate(-680.674 -606.329)"/><path class="n" d="M678.949,653.763l-.26-.9a.556.556,0,0,1,1.07-.308h0l0,.013.251.879,0,.013a.556.556,0,0,1-1.069.306Z" transform="translate(-677.288 -595.725)"/><path class="n" d="M675.667,639.877l-.186-.923a.559.559,0,0,1,1.1-.22h0l0,.013.179.9,0,.013a.558.558,0,0,1-1.094.22Z" transform="translate(-674.786 -584.878)"/><path class="n" d="M673.5,625.773l-.113-.934a.561.561,0,1,1,1.113-.134h0l0,.013.109.909,0,.013a.56.56,0,0,1-1.112.133Z" transform="translate(-673.153 -573.866)"/><path class="n" d="M672.427,611.547l-.041-.94a.563.563,0,0,1,1.124-.049h0v.013l.039.914v.013a.562.562,0,0,1-1.123.049Z" transform="translate(-672.373 -562.761)"/><path class="n" d="M672.326,597.279l.03-.94a.565.565,0,0,1,1.129.035h0v.013l-.03.915v.013a.564.564,0,0,1-1.128-.036Z" transform="translate(-672.326 -551.628)"/><path class="n" d="M673.143,583.047l.1-.937a.567.567,0,0,1,1.127.12h0v.013l-.1.911v.013a.566.566,0,0,1-1.126-.12Z" transform="translate(-672.963 -540.526)"/><path class="n" d="M675.016,568.938l.169-.926a.569.569,0,0,1,1.12.2h0l0,.013-.166.9,0,.013a.569.569,0,0,1-1.118-.2Z" transform="translate(-674.423 -529.526)"/><path class="n" d="M677.939,555.029l.238-.91a.571.571,0,1,1,1.105.289h0l0,.013-.233.885,0,.013a.571.571,0,0,1-1.1-.289Z" transform="translate(-676.703 -518.686)"/><path class="n" d="M681.911,541.4l.307-.89a.573.573,0,1,1,1.084.374h0l0,.013-.3.864,0,.013a.573.573,0,0,1-1.082-.375Z" transform="translate(-679.801 -508.071)"/><path class="n" d="M686.93,528.14l.377-.864a.575.575,0,0,1,1.055.46h0l-.005.013-.367.838-.005.013a.575.575,0,0,1-1.053-.46Z" transform="translate(-683.715 -497.747)"/><path class="n" d="M693,515.345l.445-.83a.577.577,0,0,1,1.018.546h0l-.006.012-.434.805-.007.012a.577.577,0,0,1-1.016-.546Z" transform="translate(-688.449 -487.794)"/><path class="n" d="M700.069,503.08l.5-.794a.58.58,0,1,1,.979.621h0l-.006.01-.492.772-.007.01a.579.579,0,0,1-.977-.621Z" transform="translate(-693.963 -478.253)"/><path class="n" d="M708,491.365l.558-.756a.582.582,0,0,1,.936.691h0l-.007.01-.545.736-.007.01a.581.581,0,0,1-.935-.691Z" transform="translate(-700.152 -469.141)"/><path class="n" d="M716.738,480.24l.608-.716a.584.584,0,0,1,.89.756h0l-.007.009-.594.7-.008.009a.583.583,0,0,1-.888-.755Z" transform="translate(-706.968 -460.492)"/><path class="n" d="M726.212,469.737l.654-.675a.586.586,0,0,1,.841.816h0l-.008.008-.639.657-.008.008a.585.585,0,0,1-.84-.815Z" transform="translate(-714.36 -452.328)"/><path class="n" d="M736.357,459.879l.695-.631a.588.588,0,0,1,.791.87h0l-.008.007-.68.616-.008.007a.587.587,0,0,1-.789-.87Z" transform="translate(-722.277 -444.667)"/><path class="n" d="M747.108,450.678l.732-.588a.59.59,0,1,1,.739.92h0l-.008.007-.716.573-.008.007a.589.589,0,0,1-.737-.92Z" transform="translate(-730.668 -437.52)"/><path class="n" d="M758.4,442.146l.765-.543a.592.592,0,0,1,.686.966h0l-.008.006-.749.53-.009.006a.592.592,0,0,1-.684-.965Z" transform="translate(-739.484 -430.895)"/><path class="n" d="M770.185,434.288l.794-.5a.594.594,0,0,1,.632,1.007h0l-.008.005-.778.487-.008.005a.594.594,0,0,1-.63-1.006Z" transform="translate(-748.679 -424.796)"/><path class="n" d="M782.4,427.107l.821-.454a.6.6,0,1,1,.577,1.044h0l-.009,0-.8.444-.008,0a.6.6,0,0,1-.576-1.043Z" transform="translate(-758.212 -419.225)"/><path class="n" d="M794.991,420.6l.843-.409a.6.6,0,0,1,.523,1.077h0l-.009,0-.827.4-.008,0a.6.6,0,0,1-.521-1.076Z" transform="translate(-768.043 -414.183)"/><path class="n" d="M807.922,414.779l.865-.365a.6.6,0,0,1,.467,1.107h0l-.009,0-.848.357-.009,0a.6.6,0,0,1-.466-1.106Z" transform="translate(-778.138 -409.669)"/><path class="n" d="M821.15,409.637l.881-.32a.6.6,0,0,1,.411,1.133h0l-.008,0-.864.312-.009,0a.6.6,0,0,1-.41-1.132Z" transform="translate(-788.465 -405.69)"/><path class="n" d="M834.625,405.182l.9-.274a.6.6,0,0,1,.354,1.157h0l-.009,0-.879.268-.009,0a.6.6,0,0,1-.353-1.156Z" transform="translate(-798.985 -402.247)"/><path class="n" d="M848.317,401.417l.909-.229a.607.607,0,0,1,.3,1.177h0l-.009,0-.891.223-.009,0a.606.606,0,0,1-.3-1.176Z" transform="translate(-809.674 -399.343)"/><path class="n" d="M862.19,398.351l.92-.182a.609.609,0,0,1,.237,1.195h0l-.009,0-.9.178-.009,0a.608.608,0,0,1-.236-1.194Z" transform="translate(-820.504 -396.986)"/><path class="n" d="M876.214,395.994l.926-.136a.611.611,0,0,1,.177,1.209h-.009l-.91.132h-.008a.61.61,0,0,1-.176-1.208Z" transform="translate(-831.453 -395.182)"/><path class="n" d="M890.334,394.3l.932-.094a.613.613,0,0,1,.123,1.22h-.009l-.915.091h-.008a.613.613,0,0,1-.122-1.219Z" transform="translate(-842.479 -393.893)"/><path class="n" d="M904.522,393.24l.935-.053a.615.615,0,0,1,.07,1.229h-.009l-.918.051h-.008a.615.615,0,0,1-.069-1.228Z" transform="translate(-853.558 -393.096)"/><path class="n" d="M918.748,392.786l.936-.013a.618.618,0,0,1,.018,1.235h-.008l-.92.012h-.008a.617.617,0,0,1-.017-1.234Z" transform="translate(-864.667 -392.773)"/><path class="n" d="M932.984,392.835l.935.026a.617.617,0,1,1-.034,1.235h-.007l-.92-.024h-.007a.618.618,0,0,1,.032-1.236Z" transform="translate(-875.785 -392.822)"/><path class="n" d="M947.225,393.422l.933.062a.615.615,0,1,1-.081,1.228h-.006l-.919-.06h-.007a.616.616,0,1,1,.08-1.229Z" transform="translate(-886.911 -393.279)"/><path class="n" d="M961.432,394.55l.93.1a.613.613,0,0,1-.126,1.219h-.006l-.917-.094h-.007a.613.613,0,0,1,.124-1.221Z" transform="translate(-898.012 -394.16)"/><path class="n" d="M975.588,396.194l.925.129a.61.61,0,1,1-.169,1.209h-.005l-.913-.126h-.006a.611.611,0,0,1,.167-1.21Z" transform="translate(-909.074 -395.445)"/><path class="n" d="M989.677,398.328l.92.16a.608.608,0,0,1-.208,1.2h-.005l-.909-.156h-.006a.608.608,0,0,1,.207-1.2Z" transform="translate(-920.085 -397.112)"/><path class="n" d="M1003.688,400.926l.913.189a.605.605,0,1,1-.246,1.186h0l-.9-.185h-.006a.606.606,0,0,1,.244-1.187Z" transform="translate(-931.036 -399.143)"/><path class="n" d="M1017.6,403.959l.908.217a.6.6,0,0,1-.28,1.173h0l-.9-.213h-.005a.6.6,0,0,1,.279-1.175Z" transform="translate(-941.909 -401.513)"/><path class="n" d="M1031.427,407.41l.9.243a.6.6,0,0,1-.313,1.159h0l-.892-.239h0a.6.6,0,1,1,.311-1.161Z" transform="translate(-952.718 -404.21)"/><path class="n" d="M1045.15,411.252l.895.268a.6.6,0,1,1-.343,1.146h0l-.886-.264h0a.6.6,0,0,1,.342-1.148Z" transform="translate(-963.446 -407.212)"/><path class="n" d="M1058.766,415.465l.887.291a.6.6,0,1,1-.371,1.132h0l-.879-.287h0a.6.6,0,1,1,.37-1.134Z" transform="translate(-974.09 -410.505)"/><path class="n" d="M1072.27,420.028l.88.313a.593.593,0,0,1-.4,1.117h0l-.872-.309h0a.594.594,0,0,1,.4-1.119Z" transform="translate(-984.648 -414.072)"/><path class="n" d="M1085.655,424.92l.871.334a.591.591,0,0,1-.423,1.1h0l-.864-.33,0,0a.591.591,0,1,1,.422-1.105Z" transform="translate(-995.114 -417.896)"/><path class="n" d="M1098.919,430.124l.862.353a.588.588,0,0,1-.446,1.089h0l-.856-.349h0a.589.589,0,1,1,.444-1.091Z" transform="translate(-1005.485 -421.964)"/><path class="n" d="M1112.064,435.6l.854.368a.586.586,0,0,1-.463,1.076h0l-.85-.364h0a.586.586,0,1,1,.462-1.078Z" transform="translate(-1015.765 -426.245)"/><path class="n" d="M1125.109,441.3l.849.381a.583.583,0,0,1-.478,1.064h0l-.845-.377h0a.584.584,0,0,1,.476-1.067Z" transform="translate(-1025.969 -430.702)"/><path class="n" d="M1138.074,447.174l.844.39a.581.581,0,0,1-.487,1.054h0l-.841-.387h0a.582.582,0,0,1,.486-1.057Z" transform="translate(-1036.112 -435.298)"/><path class="n" d="M1150.979,453.183l.84.4a.578.578,0,1,1-.494,1.046l-.839-.394a.579.579,0,0,1,.491-1.049Z" transform="translate(-1046.209 -439.998)"/><path class="n" d="M1163.844,459.278l.838.4a.576.576,0,0,1-.5,1.04l-.838-.4a.577.577,0,1,1,.494-1.042Z" transform="translate(-1056.277 -444.767)"/><path class="n" d="M1176.69,465.415l.837.4a.573.573,0,0,1-.494,1.035l-.838-.4a.574.574,0,1,1,.494-1.037Z" transform="translate(-1066.33 -449.569)"/><path class="n" d="M1189.534,471.547l.838.4a.571.571,0,0,1-.489,1.032l-.84-.4a.572.572,0,0,1,.49-1.033Z" transform="translate(-1076.384 -454.367)"/><path class="n" d="M1202.4,477.637l.839.394a.565.565,0,0,1-.477,1.025l-.843-.392a.568.568,0,1,1,.478-1.03Z" transform="translate(-1086.459 -459.133)"/><path class="n" d="M1215.325,483.647l.842.386h0a.558.558,0,0,1-.462,1.015l-.847-.384a.56.56,0,1,1,.462-1.021h0Z" transform="translate(-1096.582 -463.839)"/><path class="n" d="M1228.307,489.518l.846.375h0a.55.55,0,0,1-.443,1.008l-.852-.373a.553.553,0,1,1,.443-1.013h0Z" transform="translate(-1106.753 -468.435)"/><path class="n" d="M1241.369,495.2l.852.36h0a.543.543,0,0,1-.421,1l-.859-.359a.545.545,0,1,1,.421-1.006h0Z" transform="translate(-1116.988 -472.886)"/><path class="n" d="M1254.53,500.65l.859.343h0a.536.536,0,0,1-.394,1l-.867-.341a.538.538,0,0,1,.394-1h.005Z" transform="translate(-1127.301 -477.152)"/><path class="n" d="M1267.8,505.81l.866.322h0a.528.528,0,0,1-.366.992l-.875-.321a.531.531,0,0,1,.365-1h0Z" transform="translate(-1137.704 -481.193)"/><path class="n" d="M1281.2,510.639l.874.3h0a.521.521,0,0,1-.334.987l-.884-.3a.523.523,0,1,1,.333-.992h0Z" transform="translate(-1148.203 -484.976)"/><path class="n" d="M1294.72,515.093l.882.272h0a.514.514,0,0,1-.3.982l-.893-.271a.516.516,0,1,1,.3-.987h0Z" transform="translate(-1158.802 -488.465)"/><path class="n" d="M1308.373,519.122l.89.242h.005a.506.506,0,0,1-.263.978l-.9-.241a.508.508,0,0,1,.262-.982h.007Z" transform="translate(-1169.506 -491.621)"/><path class="n" d="M1322.155,522.676l.9.209h.006a.5.5,0,0,1-.224.972l-.911-.207a.5.5,0,0,1,.222-.977h.008Z" transform="translate(-1180.31 -494.406)"/><path class="n" d="M1336.06,525.7l.907.172h.006a.491.491,0,0,1-.181.966l-.92-.171a.494.494,0,0,1,.18-.971h.009Z" transform="translate(-1191.212 -496.777)"/><path class="n" d="M1350.086,528.142l.912.132H1351a.484.484,0,0,1-.136.958l-.925-.129a.486.486,0,0,1,.135-.963h.009Z" transform="translate(-1202.211 -498.69)"/><path class="n" d="M1364.2,529.939l.916.088h.007a.477.477,0,0,1-.089.949l-.93-.084a.479.479,0,1,1,.087-.954h.01Z" transform="translate(-1213.276 -500.098)"/><path class="n" d="M1378.371,531.038l.918.04h.007a.469.469,0,0,1-.039.938l-.934-.036a.471.471,0,0,1,.037-.942h.01Z" transform="translate(-1224.392 -500.96)"/><path class="n" d="M1392.58,531.354l.92-.009h.008a.46.46,0,0,1,.013.92l-.935.017a.464.464,0,0,1-.017-.928h.012Z" transform="translate(-1235.535 -501.201)"/><path class="n" d="M1406.806,530.71l.917-.066h.009a.447.447,0,0,1,.068.891l-.934.075a.451.451,0,0,1-.072-.9h.013Z" transform="translate(-1246.698 -500.651)"/><path class="n" d="M1420.976,529.16l.911-.125h.008a.434.434,0,0,1,.122.859l-.927.135a.438.438,0,1,1-.126-.866h.012Z" transform="translate(-1257.817 -499.39)"/><path class="n" d="M1435.027,526.7l.9-.184.008,0a.421.421,0,0,1,.172.824l-.916.2a.425.425,0,1,1-.177-.831h0Z" transform="translate(-1268.842 -497.413)"/><path class="n" d="M1448.9,523.316l.886-.244.008,0a.408.408,0,0,1,.22.785l-.9.256a.412.412,0,1,1-.225-.792h0Z" transform="translate(-1279.724 -494.714)"/><path class="n" d="M1462.517,519l.867-.305.008,0a.394.394,0,0,1,.265.743l-.881.318a.4.4,0,0,1-.271-.749h0Z" transform="translate(-1290.409 -491.282)"/><path class="n" d="M1475.809,513.726l.843-.368.008,0a.381.381,0,0,1,.308.7l-.855.382a.385.385,0,1,1-.314-.7h0Z" transform="translate(-1300.837 -487.1)"/><path class="n" d="M1488.686,507.48l.812-.431.008,0a.368.368,0,0,1,.348.649l-.824.447a.372.372,0,0,1-.355-.654l0,0Z" transform="translate(-1310.94 -482.153)"/><path class="n" d="M1501.047,500.242l.774-.5.008,0a.355.355,0,0,1,.386.6l-.785.513a.359.359,0,1,1-.392-.6l0,0Z" transform="translate(-1320.637 -476.428)"/><path class="n" d="M1512.779,492l.728-.561.007-.005a.342.342,0,0,1,.42.54l-.738.578a.346.346,0,1,1-.427-.544l0,0Z" transform="translate(-1329.841 -469.919)"/><path class="n" d="M1523.755,482.773l.673-.625.007-.006a.329.329,0,0,1,.449.48l-.682.643a.333.333,0,0,1-.457-.484l0,0Z" transform="translate(-1338.452 -462.633)"/><path class="n" d="M1533.845,472.577l.611-.686.006-.007a.316.316,0,0,1,.473.418l-.617.705a.32.32,0,0,1-.481-.421l0,0Z" transform="translate(-1346.368 -454.592)"/></g></g></g></g></svg>